<?xml version="1.0" standalone="no"?>
<!DOCTYPE svg PUBLIC "-//W3C//DTD SVG 1.1//EN" "http://www.w3.org/Graphics/SVG/1.1/DTD/svg11.dtd" >
<svg xmlns="http://www.w3.org/2000/svg">
<metadata>Generated by IcoMoon</metadata>
<defs>
<font id="gg-iconset" horiz-adv-x="1024">
<font-face units-per-em="1024" ascent="960" descent="-64" />
<missing-glyph horiz-adv-x="1024" />
<glyph unicode="&#x20;" horiz-adv-x="512" d="" />
<glyph unicode="&#xe900;" glyph-name="event" d="M940 827.6h-92.4v12.4c0 52-42.4 94.4-94.4 94.4s-94-42.4-94-94.4v-12.4h-287.6v12.4c0 52-42.4 94.4-94.4 94.4s-94-42.4-94-94.4v-12.4h-99.2c-46.4 0-84-37.6-84-84v-697.6c0-46.4 37.6-84 84-84h856c46.4 0 84 37.6 84 84v697.6c0 46.4-37.6 84-84 84zM721.2 840c0 17.6 14.4 32 32 32s32-14.4 32-32v-86.8c0-17.6-14.4-32-32-32s-32 14.4-32 32v86.8zM245.2 840c0 17.6 14.4 32 32 32s32-14.4 32-32v-86.8c0-17.6-14.4-32-32-32s-32 14.4-32 32v86.8zM84 765.6h99.2v-12.4c0-52 42.4-94.4 94.4-94.4s94.4 42.4 94.4 94.4v12.4h287.6v-12.4c0-52 42.4-94.4 94.4-94.4s94.4 42.4 94.4 94.4v12.4h91.6c12 0 22-10 22-22v-144.4h-900v144.4c0 12 10 22 22 22zM940 23.6h-856c-12 0-22 10-22 22v491.2h900v-491.2c0-12-10-22-22-22zM524 460.8c-11.6 4.8-24.8 2-34-6.8l-84-84c-12-12-12-31.6 0-44 12-12 31.6-12 44 0l31.2 31.2v-187.2c0-17.2 14-31.2 31.2-31.2s31.2 14 31.2 31.2v262c-0.4 12.4-8 24-19.6 28.8z" />
<glyph unicode="&#xe901;" glyph-name="list" d="M0 774.4h162.8v-144h-162.8v144zM0 518.4h162.8v-144h-162.8v144zM0 262.4h162.8v-144h-162.8v144zM242.8 774.4h781.2v-144h-781.2v144zM242.8 518.4h781.2v-144h-781.2v144zM242.8 262.4h781.2v-144h-781.2v144z" />
<glyph unicode="&#xe902;" glyph-name="cake" d="M997.6 396c0 80-65.2 145.6-145.6 145.6h-222.4v80c0 17.6-14.4 32-32 32h-159.2c-17.6 0-32-14.4-32-32v-80h-234.8c-80 0-145.6-65.2-145.6-145.6 0-38 14.8-72 38.8-98v-237.2c0-68.8 56-124.8 124.8-124.8h642c68.8 0 124.8 56 124.8 124.8v234.4c25.6 26.4 41.2 61.6 41.2 100.8zM470.8 589.6h95.2v-48h-95.2v48zM171.6 477.6h680.8c44.8 0 81.6-36.4 81.6-81.6 0-44.8-36.4-81.6-81.6-81.6-44.8 0-81.6 36.4-81.6 81.6 0 17.6-14.4 32-32 32s-32-14.4-32-32c0-44.8-36.4-81.6-81.6-81.6-44.8 0-81.6 36.4-81.6 81.6 0 17.6-14.4 32-32 32s-32-14.4-32-32c0-44.8-36.4-81.6-81.6-81.6s-81.6 36.4-81.6 81.6c0 17.6-14.4 32-32 32s-32-14.4-32-32c0-44.8-36.4-81.6-81.6-81.6s-81.6 36.4-81.6 81.6c1.2 45.2 37.6 81.6 82.4 81.6zM831.6 0h-642c-33.6 0-60.8 27.2-60.8 60.8v196.8c13.6-4.4 28-7.2 42.8-7.2 46 0 86.8 21.2 113.6 54.4 26.8-33.2 67.6-54.4 113.6-54.4s86.8 21.2 113.6 54.4c26.8-33.2 67.6-54.4 113.6-54.4s86.8 21.2 113.6 54.4c26.8-33.2 67.6-54.4 113.6-54.4 14 0 27.6 2.8 40.4 6.4v-196.4c-0.8-33.2-28.4-60.4-62-60.4zM518.4 707.2c29.2 0 57.2 11.6 77.6 32.4 20.8 20.8 32.4 48.4 32.4 78s-11.6 57.2-32 77.6l-54.8 55.2c-6 6-14 9.6-22.8 9.6-9.6 0.4-16.8-3.2-22.8-9.2l-55.6-55.6c-42.8-42.8-42.8-112.8 0-155.6 21.2-20.8 48.8-32.4 78-32.4zM486 850l32.8 32.8 32.4-32.8c8.8-8.8 13.6-20.4 13.6-32.4 0-12.4-4.8-24-13.6-32.4-17.2-17.2-47.6-17.2-65.2 0-18 17.6-18 46.8 0 64.8z" />
<glyph unicode="&#xe903;" glyph-name="gallery" d="M243.2 526c66.8 0 121.2 54.4 121.2 121.2s-54 121.2-121.2 121.2c-66.8 0-121.2-54.4-121.2-121.2s54.4-121.2 121.2-121.2zM243.2 704.4c31.6 0 57.2-25.6 57.2-57.2s-25.6-57.2-57.2-57.2-57.2 25.6-57.2 57.2 25.6 57.2 57.2 57.2zM947.6 735.2h-85.2v67.2c0 42.4-34.4 76.4-76.4 76.4h-709.6c-42 0.4-76.4-34-76.4-76.4v-535.2c0-42.4 34.4-76.4 76.4-76.4h85.2v-67.2c0-42.4 34.4-76.4 76.4-76.4h708.8c42.4 0 76.4 34.4 76.4 76.4v535.2c0.8 42-33.6 76.4-75.6 76.4zM76.4 815.2h708.8c6.8 0 12.4-5.6 12.4-12.4v-296l-152.8 148c-28.8 28-78 28-106.8 0l-224-218.8c-6.4-6-11.2-6.4-17.6 0l-28.8 27.2c-28.4 27.2-76.4 27.6-105.2 0.4l-98.4-93.2v432c0 7.2 5.6 12.8 12.4 12.8zM64 267.2v15.2l142.8 134.8c6.4 6 10.8 6 17.2 0l28.8-27.2c28.8-27.6 77.6-27.2 106.4 0.4l224 218.8c6.4 6 11.2 6.4 17.6 0l197.2-191.2v-150.4c0-6.8-5.6-12.4-12.4-12.4h-709.2c-6.8-0.4-12.4 5.2-12.4 12zM960 123.2c0-6.8-5.6-12.4-12.4-12.4h-709.2c-6.8 0-12.4 5.6-12.4 12.4v67.2h559.6c42.4 0 76.4 34.4 76.4 76.4v403.6h85.2c6.8 0 12.4-5.6 12.4-12.4v-534.8z" />
<glyph unicode="&#xe904;" glyph-name="grid" d="M339.2 492.4h-211.6c-70.4 0-128 57.2-128 127.6v212.4c0 70.4 57.6 127.6 128 127.6h211.6c70.4 0 128-57.2 128-127.6v-212.4c0-70.4-57.6-127.6-128-127.6zM127.6 896.4c-35.2 0-64-28.4-64-63.6v-212.8c0-35.2 28.8-63.6 64-63.6h211.6c35.2 0 64 28.4 64 63.6v212.4c0 35.2-28.8 63.6-64 63.6h-211.6zM895.6 492.4h-211.6c-70.4 0-128 57.2-128 127.6v212.4c0 70.4 57.6 127.6 128 127.6h211.6c70.4 0 128-57.2 128-127.6v-212.4c0-70.4-57.2-127.6-128-127.6zM684 896.4c-35.2 0-64-28.4-64-63.6v-212.8c0-35.2 28.8-63.6 64-63.6h211.6c35.2 0 64 28.4 64 63.6v212.4c0 35.2-28.8 63.6-64 63.6h-211.6zM339.2-66.4h-211.6c-70.4 0-128 57.2-128 127.6v212.8c0 70.4 57.6 127.6 128 127.6h211.6c70.4 0 128-57.2 128-127.6v-212.8c0-70.8-57.6-127.6-128-127.6zM127.6 337.2c-35.2 0-64-28.4-64-63.6v-212.8c0-35.2 28.8-63.6 64-63.6h211.6c35.2 0 64 28.4 64 63.6v212.8c0 35.2-28.8 63.6-64 63.6h-211.6zM895.6-66.4h-211.6c-70.4 0-128 57.2-128 127.6v212.8c0 70.4 57.6 127.6 128 127.6h211.6c70.4 0 128-57.2 128-127.6v-212.8c0-70.8-57.2-127.6-128-127.6zM684 337.2c-35.2 0-64-28.4-64-63.6v-212.8c0-35.2 28.8-63.6 64-63.6h211.6c35.2 0 64 28.4 64 63.6v212.8c0 35.2-28.8 63.6-64 63.6h-211.6z" />
<glyph unicode="&#xe905;" glyph-name="chat-double-fill" d="M153.6 172.8c-9.6 0-16 3.2-22.4 9.6-9.6 9.6-12.8 25.6-6.4 38.4l41.6 83.2c-105.6 54.4-166.4 140.8-166.4 236.8 0 160 179.2 294.4 403.2 294.4 220.8 0 403.2-131.2 403.2-294.4 0-160-179.2-294.4-403.2-294.4-19.2 0-35.2 0-57.6 3.2l-179.2-76.8c-3.2 0-9.6 0-12.8 0zM403.2 768c-185.6 0-339.2-102.4-339.2-227.2 0-76.8 60.8-150.4 160-192 9.6-3.2 16-9.6 19.2-19.2s3.2-19.2 0-25.6l-19.2-35.2 105.6 44.8c6.4 3.2 9.6 3.2 16 3.2 22.4-3.2 38.4-3.2 57.6-3.2 185.6 0 339.2 102.4 339.2 227.2s-153.6 227.2-339.2 227.2zM905.6 35.2c0 0-51.2 35.2-73.6 102.4 115.2 51.2 192 147.2 192 256 0 96-57.6 179.2-150.4 233.6 3.2-16 0-32 3.2-48 35.2-265.6-214.4-400-486.4-416 67.2-41.6 150.4-67.2 243.2-67.2 25.6 0 48 3.2 73.6 6.4 0 0 73.6-76.8 198.4-67.2z" />
<glyph unicode="&#xe906;" glyph-name="circle-line" d="M512 192c-140.8 0-256 115.2-256 256s115.2 256 256 256 256-115.2 256-256-115.2-256-256-256zM512 640c-105.6 0-192-86.4-192-192s86.4-192 192-192 192 86.4 192 192-86.4 192-192 192z" />
<glyph unicode="&#xe907;" glyph-name="circle-fill" d="M512 192c-140.8 0-256 115.2-256 256s115.2 256 256 256c140.8 0 256-115.2 256-256s-115.2-256-256-256z" />
<glyph unicode="&#xe908;" glyph-name="email-fill" d="M988.8 752c3.2 0 9.6 0 12.8-3.2 0 0 3.2 0 3.2-3.2 3.2 0 3.2-3.2 6.4-3.2 0 0 3.2-3.2 3.2-3.2 3.2-3.2 3.2-3.2 6.4-6.4 0 0 0-3.2 0-3.2l-294.4-281.6c0 0 0 0 0 0s0 0 0 0l-160-156.8c-28.8-28.8-80-28.8-108.8 0l-147.2 140.8c0 0 0 0 0 0s0 0 0 0l-307.2 300.8c0 0 0 0 0 3.2s3.2 6.4 6.4 6.4c0 0 3.2 3.2 3.2 3.2 3.2 3.2 3.2 3.2 6.4 3.2 0 0 3.2 0 3.2 3.2 3.2 0 6.4 3.2 12.8 3.2h953.6zM988.8 70.4h-953.6c-19.2 0-35.2 16-35.2 35.2v531.2l236.8-230.4-150.4-153.6c-12.8-12.8-12.8-35.2 0-51.2 6.4-6.4 16-9.6 22.4-9.6 9.6 0 19.2 3.2 25.6 9.6l153.6 156.8 121.6-118.4c28.8-25.6 64-41.6 102.4-41.6s73.6 16 102.4 41.6l137.6 131.2 160-163.2c6.4-6.4 16-9.6 25.6-9.6s19.2 3.2 25.6 9.6c12.8 12.8 12.8 35.2 0 51.2l-160 163.2 220.8 214.4v-528c0-22.4-16-38.4-35.2-38.4z" />
<glyph unicode="&#xe909;" glyph-name="dribbble-fill" d="M1024 460.8c-70.4 22.4-147.2 32-220.8 32-51.2 0-102.4-6.4-153.6-16-12.8 32-28.8 67.2-44.8 99.2 108.8 51.2 204.8 128 284.8 217.6 80-86.4 131.2-204.8 134.4-332.8zM835.2 844.8c-73.6-86.4-166.4-153.6-265.6-204.8-57.6 105.6-121.6 204.8-195.2 300.8 44.8 12.8 89.6 19.2 137.6 19.2 121.6 0 233.6-41.6 323.2-115.2zM300.8 915.2c76.8-96 144-195.2 201.6-300.8-96-35.2-195.2-54.4-300.8-54.4-60.8 0-124.8 6.4-185.6 19.2 41.6 147.2 147.2 272 284.8 336zM0 448c0 19.2 0 38.4 3.2 57.6 64-12.8 131.2-22.4 198.4-22.4 115.2 0 230.4 22.4 332.8 64 12.8-28.8 28.8-57.6 38.4-86.4-185.6-57.6-345.6-185.6-441.6-355.2-80 89.6-131.2 208-131.2 342.4zM188.8 51.2c86.4 166.4 236.8 288 412.8 342.4 51.2-134.4 86.4-272 108.8-416-60.8-25.6-128-41.6-198.4-41.6-121.6 0-233.6 41.6-323.2 115.2zM780.8 12.8c-22.4 134.4-57.6 268.8-105.6 396.8 41.6 6.4 83.2 12.8 128 12.8 73.6 0 147.2-12.8 217.6-35.2-19.2-160-112-294.4-240-374.4z" />
<glyph unicode="&#xe90a;" glyph-name="facebook-fill" d="M572.8-64v444.8h150.4l38.4 192h-188.8v112c0 48 38.4 83.2 83.2 83.2h105.6v192h-185.6c-108.8 0-195.2-86.4-195.2-195.2v-188.8h-156.8v-192h156.8v-448h192z" />
<glyph unicode="&#xe90b;" glyph-name="apple" d="M387.2-64c-76.8 0-131.2 76.8-166.4 128-89.6 131.2-140.8 348.8-57.6 489.6 44.8 80 128 128 214.4 131.2 0 0 0 0 0 0 41.6 0 76.8-12.8 105.6-25.6 16-6.4 35.2-12.8 44.8-12.8 6.4 0 25.6 6.4 41.6 12.8 35.2 16 83.2 32 134.4 28.8 35.2 0 128-16 188.8-102.4 6.4-6.4 6.4-16 6.4-25.6-3.2-9.6-6.4-16-12.8-19.2-22.4-16-86.4-60.8-86.4-147.2 0-105.6 83.2-147.2 102.4-153.6 0 0 3.2 0 3.2 0 12.8-6.4 19.2-22.4 16-38.4-6.4-16-25.6-76.8-67.2-137.6-38.4-54.4-83.2-124.8-163.2-124.8 0 0-3.2 0-3.2 0-35.2 0-57.6 9.6-80 19.2-19.2 9.6-38.4 16-67.2 16-32 0-48-6.4-70.4-16s-44.8-22.4-76.8-22.4c0 0-3.2 0-6.4 0zM380.8 620.8c-67.2 0-128-38.4-163.2-96-73.6-128-12.8-323.2 57.6-422.4 35.2-51.2 73.6-102.4 115.2-102.4h3.2c19.2 0 35.2 6.4 54.4 16 25.6 9.6 51.2 22.4 96 22.4 41.6 0 70.4-12.8 92.8-22.4 19.2-6.4 32-12.8 54.4-12.8 44.8 0 76.8 41.6 115.2 96 25.6 35.2 41.6 70.4 51.2 96-41.6 25.6-112 83.2-115.2 198.4 0 89.6 48 147.2 83.2 179.2-41.6 44.8-96 51.2-121.6 51.2-6.4 0-9.6 0-12.8 0-32 0-64-12.8-92.8-25.6-25.6-9.6-44.8-19.2-67.2-19.2s-44.8 9.6-67.2 19.2c-28.8 12.8-57.6 22.4-83.2 22.4zM531.2 688v0c-3.2 0-6.4 0-12.8 0-16 0-28.8 12.8-28.8 28.8-9.6 64 22.4 128 54.4 166.4 38.4 44.8 102.4 76.8 156.8 80 16 0 32-12.8 32-28.8 6.4-57.6-12.8-118.4-54.4-169.6-38.4-48-96-76.8-147.2-76.8zM668.8 889.6c-28.8-9.6-57.6-28.8-76.8-51.2-16-19.2-35.2-51.2-41.6-86.4 28.8 6.4 57.6 25.6 76.8 51.2 25.6 25.6 38.4 57.6 41.6 86.4z" />
<glyph unicode="&#xe90c;" glyph-name="pie-fill" d="M512-64c-281.6 0-512 230.4-512 512s230.4 512 512 512c19.2 0 32-12.8 32-32v-448h448c19.2 0 32-12.8 32-32 0-281.6-230.4-512-512-512zM985.6 550.4h-339.2c-19.2 0-32 12.8-32 32v339.2c0 19.2 12.8 32 32 32 204.8 0 371.2-166.4 371.2-371.2 0-19.2-12.8-32-32-32z" />
<glyph unicode="&#xe90d;" glyph-name="pie-line" d="M512-64c-281.6 0-512 230.4-512 512s230.4 512 512 512c19.2 0 32-12.8 32-32v-448h448c19.2 0 32-12.8 32-32 0-281.6-230.4-512-512-512zM480 896c-233.6-19.2-416-211.2-416-448 0-246.4 201.6-448 448-448 236.8 0 432 182.4 448 416h-448c-19.2 0-32 12.8-32 32v448zM985.6 550.4h-339.2c-19.2 0-32 12.8-32 32v339.2c0 19.2 12.8 32 32 32 204.8 0 371.2-166.4 371.2-371.2 0-19.2-12.8-32-32-32zM678.4 614.4h275.2c-16 144-131.2 259.2-275.2 275.2v-275.2z" />
<glyph unicode="&#xe90e;" glyph-name="ellipsis-line-v" d="M672 96c0-89.6-73.6-160-160-160-89.6 0-160 73.6-160 160 0 89.6 73.6 160 160 160 89.6 3.2 160-70.4 160-160zM416 96c0-54.4 44.8-96 96-96 54.4 0 96 44.8 96 96 0 54.4-44.8 96-96 96-54.4 3.2-96-41.6-96-96zM672 448c0-89.6-73.6-160-160-160-89.6 0-160 73.6-160 160 0 89.6 73.6 160 160 160 89.6 0 160-70.4 160-160zM416 448c0-54.4 44.8-96 96-96 54.4 0 96 44.8 96 96 0 54.4-44.8 96-96 96-54.4 0-96-41.6-96-96zM672 800c0-89.6-73.6-160-160-160-89.6 0-160 73.6-160 160s73.6 160 160 160c89.6 0 160-73.6 160-160zM416 800c0-54.4 44.8-96 96-96 54.4 0 96 44.8 96 96 0 54.4-44.8 96-96 96-54.4 0-96-44.8-96-96z" />
<glyph unicode="&#xe90f;" glyph-name="ellipsis-line-h" d="M160 288c-89.6 0-160 73.6-160 160 0 89.6 73.6 160 160 160 89.6 0 160-73.6 160-160 3.2-89.6-70.4-160-160-160zM160 544c-54.4 0-96-44.8-96-96 0-54.4 44.8-96 96-96 54.4 0 96 44.8 96 96 3.2 54.4-41.6 96-96 96zM512 288c-89.6 0-160 73.6-160 160 0 89.6 73.6 160 160 160 89.6 0 160-73.6 160-160 0-89.6-70.4-160-160-160zM512 544c-54.4 0-96-44.8-96-96 0-54.4 44.8-96 96-96 54.4 0 96 44.8 96 96 0 54.4-41.6 96-96 96zM864 288c-89.6 0-160 73.6-160 160 0 89.6 73.6 160 160 160s160-73.6 160-160c0-89.6-73.6-160-160-160zM864 544c-54.4 0-96-44.8-96-96 0-54.4 44.8-96 96-96 54.4 0 96 44.8 96 96 0 54.4-44.8 96-96 96z" />
<glyph unicode="&#xe910;" glyph-name="lock-fill" d="M812.8 560h-76.8c0 0 0 0 0 0v166.4c0 128-105.6 233.6-233.6 233.6s-230.4-105.6-230.4-233.6v-166.4c0 0 0 0 0 0h-76.8c-60.8 0-108.8-48-108.8-108.8v-409.6c0-60.8 48-108.8 108.8-108.8h617.6c60.8 0 108.8 48 108.8 108.8v412.8c-3.2 57.6-51.2 105.6-108.8 105.6zM336 560v166.4c0 92.8 76.8 169.6 169.6 169.6s166.4-76.8 166.4-169.6v-166.4c0 0 0 0 0 0h-336c0 0 0 0 0 0zM534.4 137.6v-76.8c0-19.2-12.8-32-32-32s-32 12.8-32 32v76.8c-60.8 12.8-102.4 67.2-102.4 131.2 0 73.6 60.8 134.4 134.4 134.4s134.4-60.8 134.4-134.4c0-64-41.6-118.4-102.4-131.2z" />
<glyph unicode="&#xe911;" glyph-name="folder-fill" d="M816 48c-3.2 0-3.2 0-3.2 0h-726.4c-48 0-86.4 38.4-86.4 86.4v627.2c0 48 38.4 86.4 86.4 86.4h233.6c48 0 86.4-38.4 86.4-86.4v-22.4h406.4c48 0 86.4-38.4 86.4-86.4v-128h41.6c28.8 0 57.6-16 73.6-38.4 16-25.6 19.2-54.4 6.4-83.2l-128-304c-19.2-41.6-57.6-51.2-76.8-51.2zM70.4 115.2c3.2-3.2 9.6-6.4 16-6.4h726.4c6.4 0 16 0 22.4 16l128 304c3.2 9.6 0 19.2-3.2 22.4s-9.6 9.6-19.2 9.6h-704c-9.6 0-19.2-6.4-22.4-16l-144-329.6z" />
<glyph unicode="&#xe912;" glyph-name="phone-fill" d="M326.4 636.8c16-16 44.8-16 60.8 0l51.2 51.2c16 16 16 44.8 0 60.8l-198.4 198.4c-16 19.2-44.8 19.2-60.8 0l-51.2-51.2c-16-16-16-41.6 0-60.8l198.4-198.4zM899.2 64c16-16 44.8-16 60.8 0l51.2 51.2c16 16 16 44.8 0 60.8l-198.4 198.4c-16 16-44.8 16-60.8 0l-51.2-51.2c-16-16-16-44.8 0-60.8l198.4-198.4zM860.8 38.4c12.8-12.8 12.8-32 0-44.8-35.2-35.2-108.8-86.4-220.8-38.4-92.8 38.4-211.2 102.4-364.8 256s-217.6 268.8-256 364.8c-48 112 6.4 188.8 38.4 220.8 12.8 12.8 32 12.8 44.8 0l179.2-179.2c9.6-9.6 12.8-25.6 3.2-41.6-57.6-99.2 80-240 80-240 6.4-6.4 25.6-25.6 32-32 0 0 140.8-140.8 240-80 12.8 6.4 28.8 6.4 41.6-3.2l182.4-182.4z" />
<glyph unicode="&#xe913;" glyph-name="video-cam-fill" d="M985.6 553.6l-233.6-118.4v76.8c0 41.6-35.2 76.8-76.8 76.8h-86.4c60.8 25.6 102.4 86.4 102.4 153.6 0 92.8-73.6 166.4-166.4 166.4s-166.4-73.6-166.4-166.4c0-70.4 41.6-128 102.4-153.6h-179.2c41.6 22.4 73.6 64 73.6 115.2 0 70.4-57.6 128-128 128s-131.2-54.4-131.2-128c0-51.2 28.8-92.8 73.6-115.2h-92.8c-41.6 0-76.8-35.2-76.8-76.8v-428.8c0-41.6 35.2-76.8 76.8-76.8h595.2c41.6 0 76.8 35.2 76.8 76.8v76.8l233.6-118.4c19.2-9.6 41.6 3.2 41.6 22.4v467.2c0 19.2-22.4 32-38.4 22.4z" />
<glyph unicode="&#xe914;" glyph-name="microphone-fill" d="M857.6 492.8v83.2c0 19.2-16 32-32 32-19.2 0-32-16-32-32v-83.2c0-144-118.4-259.2-259.2-259.2s-259.2 118.4-259.2 259.2v83.2c0 19.2-16 32-32 32-19.2 0-32-16-32-32v-83.2c0-169.6 128-307.2 294.4-323.2v-169.6h-172.8c-19.2 0-32-16-32-32 0-19.2 16-32 32-32h403.2c19.2 0 32 16 32 32 0 19.2-16 32-32 32h-172.8v169.6c166.4 16 294.4 156.8 294.4 323.2zM438.4 400c25.6-22.4 57.6-35.2 92.8-35.2 76.8 0 137.6 60.8 137.6 137.6v320c3.2 76.8-60.8 137.6-137.6 137.6s-137.6-60.8-137.6-137.6v-316.8c0-70.4 44.8-105.6 44.8-105.6z" />
<glyph unicode="&#xe915;" glyph-name="bell-fill" d="M937.6 188.8c-112 176-121.6 358.4-121.6 358.4 0 134.4-112 246.4-259.2 262.4 28.8 9.6 51.2 38.4 51.2 73.6 3.2 41.6-32 76.8-76.8 76.8s-80-35.2-80-80c0-32 19.2-60.8 48-73.6-147.2-9.6-265.6-121.6-265.6-259.2 0 0 6.4-172.8-112-358.4-28.8-44.8 0-96 54.4-96h195.2c3.2-86.4 73.6-156.8 160-156.8s156.8 70.4 160 156.8h192c54.4 0 83.2 51.2 54.4 96z" />
<glyph unicode="&#xe916;" glyph-name="share-alt-fill" d="M784 336c-73.6 0-137.6-38.4-169.6-96l-198.4 128c16 28.8 22.4 60.8 22.4 92.8 0 16-3.2 35.2-6.4 51.2 3.2 0 6.4 3.2 9.6 3.2l185.6 121.6c35.2-44.8 92.8-76.8 156.8-76.8 108.8 0 198.4 89.6 198.4 198.4 3.2 112-86.4 201.6-198.4 201.6-108.8 0-198.4-89.6-198.4-198.4 0-6.4 0-12.8 0-22.4l-204.8-134.4c0 0-3.2-3.2-3.2-3.2-35.2 35.2-86.4 57.6-140.8 57.6-108.8 0-198.4-89.6-198.4-198.4s89.6-198.4 198.4-198.4c38.4 0 73.6 9.6 102.4 28.8 3.2-3.2 6.4-9.6 12.8-12.8l211.2-134.4c6.4-3.2 12.8-6.4 22.4-6.4 0-108.8 89.6-198.4 198.4-198.4s198.4 89.6 198.4 198.4-86.4 198.4-198.4 198.4z" />
<glyph unicode="&#xe917;" glyph-name="heart-fill" d="M515.2 745.6c38.4 48 70.4 64 86.4 76.8 105.6 67.2 249.6 54.4 342.4-38.4 108.8-108.8 108.8-281.6 0-390.4l-400-396.8c-19.2-19.2-48-19.2-64 0l-396.8 396.8c-112 112-108.8 291.2 9.6 396.8 105.6 96 265.6 96 371.2 0l51.2-44.8z" />
<glyph unicode="&#xe918;" glyph-name="image-fill" d="M284.8 444.8c76.8 0 140.8 64 140.8 140.8s-64 140.8-140.8 140.8-140.8-64-140.8-140.8c3.2-80 64-140.8 140.8-140.8zM284.8 659.2c41.6 0 76.8-35.2 76.8-76.8s-35.2-76.8-76.8-76.8-76.8 35.2-76.8 76.8 35.2 76.8 76.8 76.8zM992 854.4h-960c-19.2 0-32-12.8-32-32v-752c0-19.2 12.8-32 32-32h960c19.2 0 32 12.8 32 32v752c0 19.2-12.8 32-32 32zM960 790.4v-438.4l-217.6 211.2c-22.4 19.2-54.4 19.2-73.6 0l-268.8-262.4c-19.2-19.2-54.4-19.2-73.6 0l-35.2 32c-19.2 19.2-54.4 19.2-73.6 0l-153.6-140.8v598.4h896z" />
<glyph unicode="&#xe919;" glyph-name="plus-light" d="M992 480h-448v448c0 19.2-12.8 32-32 32s-32-12.8-32-32v-448h-448c-19.2 0-32-12.8-32-32s12.8-32 32-32h448v-448c0-19.2 12.8-32 32-32s32 12.8 32 32v448h448c19.2 0 32 12.8 32 32s-12.8 32-32 32z" />
<glyph unicode="&#xe91a;" glyph-name="plus-bold" d="M768 486.4h-208v208c0 19.2-12.8 32-32 32s-32-12.8-32-32v-208h-208c-19.2 0-32-12.8-32-32s12.8-32 32-32h208v-208c0-19.2 12.8-32 32-32s32 12.8 32 32v208h208c19.2 0 32 12.8 32 32s-12.8 32-32 32z" />
<glyph unicode="&#xe91b;" glyph-name="setting-fill" d="M931.2 537.6h-57.6c-6.4 38.4-22.4 70.4-41.6 102.4l41.6 41.6c35.2 35.2 35.2 92.8 0 128s-92.8 35.2-128 0l-41.6-41.6c-32 19.2-64 32-102.4 41.6v60.8c0 48-41.6 89.6-89.6 89.6s-89.6-41.6-89.6-89.6v-57.6c-38.4-9.6-73.6-25.6-102.4-44.8l-41.6 41.6c-35.2 35.2-92.8 35.2-128 0s-35.2-92.8 0-128l38.4-41.6c-19.2-32-32-64-41.6-102.4h-57.6c-51.2 0-89.6-38.4-89.6-89.6s41.6-89.6 89.6-89.6h57.6c9.6-38.4 25.6-70.4 41.6-102.4l-41.6-41.6c-35.2-35.2-35.2-92.8 0-128 19.2-19.2 41.6-25.6 64-25.6s48 9.6 64 25.6l44.8 41.6c32-19.2 67.2-32 102.4-41.6v-57.6c0-51.2 41.6-89.6 89.6-89.6s89.6 41.6 89.6 89.6v57.6c38.4 6.4 70.4 22.4 102.4 41.6l41.6-41.6c19.2-19.2 41.6-25.6 64-25.6s48 9.6 64 25.6c35.2 35.2 35.2 92.8 0 128l-41.6 41.6c19.2 32 32 64 41.6 102.4h57.6c51.2 0 89.6 41.6 89.6 89.6s-38.4 89.6-89.6 89.6zM512 313.6c-73.6 0-134.4 60.8-134.4 134.4s60.8 134.4 134.4 134.4 134.4-60.8 134.4-134.4-60.8-134.4-134.4-134.4z" />
<glyph unicode="&#xe91c;" glyph-name="youtube-fill" d="M972.8 745.6c-41.6 44.8-86.4 41.6-185.6 48-96 6.4-454.4 6.4-550.4 0-99.2-3.2-140.8 0-185.6-48-70.4-73.6-70.4-540.8 0-614.4 41.6-44.8 86.4-41.6 185.6-48 96-3.2 416-6.4 550.4 0 99.2 3.2 140.8 0 185.6 48 76.8 89.6 60.8 556.8 0 614.4zM406.4 304v288l275.2-144-275.2-144z" />
<glyph unicode="&#xe91d;" glyph-name="bookmark-fill" d="M886.4-54.4l-355.2 265.6-358.4-265.6c-25.6-19.2-60.8 0-60.8 28.8v908.8c0 41.6 35.2 76.8 76.8 76.8h681.6c41.6 0 76.8-35.2 76.8-76.8v-908.8c-3.2-28.8-38.4-48-60.8-28.8z" />
<glyph unicode="&#xe91e;" glyph-name="rating-fill" d="M547.2 908.8l96-291.2c6.4-16 19.2-25.6 35.2-25.6h307.2c38.4 0 51.2-48 22.4-70.4l-246.4-179.2c-12.8-9.6-19.2-25.6-12.8-41.6l96-291.2c12.8-35.2-28.8-64-57.6-41.6l-246.4 179.2c-12.8 9.6-32 9.6-44.8 0l-252.8-179.2c-28.8-22.4-70.4 6.4-57.6 41.6l96 291.2c6.4 16 0 32-12.8 41.6l-246.4 179.2c-28.8 22.4-16 70.4 22.4 70.4h307.2c16 0 32 9.6 35.2 25.6l96 291.2c3.2 35.2 54.4 35.2 64 0z" />
<glyph unicode="&#xe91f;" glyph-name="camera-fill" d="M944 780.8h-240c0 60.8-48 108.8-108.8 108.8h-172.8c-60.8 0-108.8-48-108.8-108.8h-233.6c-44.8 0-80-38.4-80-80v-595.2c0-44.8 35.2-80 80-80h864c44.8 0 80 35.2 80 80v595.2c0 41.6-35.2 80-80 80zM512 198.4c-112 0-201.6 89.6-201.6 201.6s89.6 201.6 201.6 201.6c112 0 201.6-89.6 201.6-201.6 0-108.8-89.6-201.6-201.6-201.6z" />
<glyph unicode="&#xe920;" glyph-name="location-marker-fill" d="M473.6-48c6.4-6.4 9.6-9.6 16-12.8v0l9.6-3.2 9.6 3.2c6.4 3.2 9.6 6.4 16 12.8 0 0 304 323.2 332.8 604.8 3.2 16 3.2 28.8 3.2 44.8 3.2 198.4-160 358.4-361.6 358.4-204.8 0-368-160-368-358.4 0-16 0-28.8 3.2-44.8 32-281.6 339.2-604.8 339.2-604.8zM499.2 832c131.2 0 236.8-102.4 236.8-230.4s-105.6-230.4-236.8-230.4c-131.2 0-236.8 102.4-236.8 230.4 0 124.8 105.6 230.4 236.8 230.4z" />
<glyph unicode="&#xe921;" glyph-name="location-marker" d="M492.8 960c-204.8 0-374.4-166.4-374.4-368 0-12.8 0-28.8 3.2-44.8 28.8-272 313.6-572.8 326.4-585.6 6.4-6.4 16-12.8 22.4-19.2 3.2 0 3.2-3.2 6.4-3.2l9.6-3.2c3.2 0 6.4 0 9.6 0s6.4 0 9.6 0l9.6 3.2c3.2 0 3.2 0 6.4 3.2 9.6 3.2 16 9.6 22.4 19.2 12.8 12.8 291.2 313.6 320 585.6 3.2 16 3.2 32 3.2 44.8 3.2 201.6-166.4 368-374.4 368zM803.2 553.6c-25.6-249.6-300.8-547.2-304-550.4 0 0 0 0 0 0s0 0 0 0c-3.2 3.2-281.6 297.6-310.4 547.2-3.2 12.8-3.2 25.6-3.2 38.4 0 169.6 140.8 304 310.4 304 172.8 0 310.4-137.6 310.4-304 0-9.6-3.2-22.4-3.2-35.2zM492.8 809.6c-121.6 0-220.8-96-220.8-217.6 0-118.4 99.2-217.6 220.8-217.6s220.8 96 220.8 217.6c0 118.4-99.2 217.6-220.8 217.6zM492.8 438.4c-86.4 0-156.8 70.4-156.8 153.6s70.4 153.6 156.8 153.6c86.4 0 156.8-70.4 156.8-153.6s-70.4-153.6-156.8-153.6z" />
<glyph unicode="&#xe922;" glyph-name="pencil" d="M918.4 0h-819.2c-19.2 0-32-12.8-32-32s12.8-32 32-32h819.2c19.2 0 32 12.8 32 32s-16 32-32 32zM96 92.8l297.6 64c0 0 0 0 0 0v0c6.4 0 12.8 3.2 16 9.6l416 416 70.4 73.6c35.2 35.2 35.2 96 0 131.2l-147.2 147.2c-35.2 35.2-96 35.2-131.2 0l-489.6-489.6c-3.2-3.2-6.4-9.6-9.6-16l-64-297.6c-3.2-9.6 0-22.4 9.6-28.8 6.4-6.4 12.8-9.6 22.4-9.6 6.4 0 6.4 0 9.6 0zM172.8 358.4l150.4-150.4-188.8-41.6 38.4 192zM387.2 233.6l-188.8 188.8 371.2 371.2 67.2-67.2-195.2-195.2c-12.8-12.8-12.8-32 0-44.8 6.4-6.4 16-9.6 22.4-9.6s16 3.2 22.4 9.6l195.2 195.2 73.6-73.6-368-374.4zM665.6 889.6c9.6 9.6 28.8 9.6 41.6 0l147.2-147.2c12.8-12.8 12.8-28.8 0-41.6l-51.2-51.2-188.8 188.8 51.2 51.2z" />
<glyph unicode="&#xe923;" glyph-name="dotted-line-h" d="M955.733 482.133h68.267v-68.267h-68.267v68.267zM819.2 482.133h68.267v-68.267h-68.267v68.267zM682.667 482.133h68.267v-68.267h-68.267v68.267zM546.133 482.133h68.267v-68.267h-68.267v68.267zM409.6 482.133h68.267v-68.267h-68.267v68.267zM273.067 482.133h68.267v-68.267h-68.267v68.267zM136.533 482.133h68.267v-68.267h-68.267v68.267zM0 482.133h68.267v-68.267h-68.267v68.267z" />
<glyph unicode="&#xe924;" glyph-name="dotted-line-v" d="M477.867 960h68.267v-68.267h-68.267v68.267zM477.867 823.467h68.267v-68.267h-68.267v68.267zM477.867 686.933h68.267v-68.267h-68.267v68.267zM477.867 550.4h68.267v-68.267h-68.267v68.267zM477.867 413.867h68.267v-68.267h-68.267v68.267zM477.867 277.333h68.267v-68.267h-68.267v68.267zM477.867 140.8h68.267v-68.267h-68.267v68.267zM477.867 4.267h68.267v-68.267h-68.267v68.267z" />
<glyph unicode="&#xe925;" glyph-name="ellipsis-v" horiz-adv-x="253" d="M256 64c0-70.692-57.308-128-128-128s-128 57.308-128 128c0 70.692 57.308 128 128 128s128-57.308 128-128zM256 448c0-70.692-57.308-128-128-128s-128 57.308-128 128c0 70.692 57.308 128 128 128s128-57.308 128-128zM256 832c0-70.692-57.308-128-128-128s-128 57.308-128 128c0 70.692 57.308 128 128 128s128-57.308 128-128z" />
<glyph unicode="&#xe926;" glyph-name="ellipsis-h" d="M256 448c0-70.692-57.308-128-128-128s-128 57.308-128 128c0 70.692 57.308 128 128 128s128-57.308 128-128zM640 448c0-70.692-57.308-128-128-128s-128 57.308-128 128c0 70.692 57.308 128 128 128s128-57.308 128-128zM1024 448c0-70.692-57.308-128-128-128s-128 57.308-128 128c0 70.692 57.308 128 128 128s128-57.308 128-128z" />
<glyph unicode="&#xe927;" glyph-name="navicon" d="M959.702 709.16h-895.405c-35.721 0-64.298 28.577-64.298 63.504s28.577 64.298 64.298 64.298h896.198c35.721 0 64.298-28.577 64.298-64.298s-29.371-63.504-65.091-63.504zM959.702 385.29h-895.405c-35.721 0-64.298 28.577-64.298 64.298s28.577 64.298 64.298 64.298h896.198c35.721 0 64.298-28.577 64.298-64.298s-29.371-64.298-65.091-64.298zM959.702 61.42h-895.405c-35.721 0-64.298 28.577-64.298 64.298s28.577 64.298 64.298 64.298h896.198c35.721 0 64.298-28.577 64.298-64.298s-29.371-64.298-65.091-64.298z" />
<glyph unicode="&#xe928;" glyph-name="check" d="M390.4 101.6v0c-16 0-31.2 6.4-42.4 17.6l-330.4 330.4c-23.2 23.2-23.2 61.6 0 84.8s61.6 23.2 84.8 0l287.2-287.2 531.2 531.2c23.2 23.2 61.6 23.2 84.8 0s23.2-61.6 0-84.8l-572.8-574.4c-11.2-11.2-26.4-17.6-42.4-17.6z" />
<glyph unicode="&#xe929;" glyph-name="key" d="M331.2-62.4c0 0-1.6 0-2.4 0-181.6 0.8-329.6 150.4-328.8 332.8 0.8 181.6 149.6 329.6 331.2 329.6 20.8 0 46.4-4 68-8.8l402.4 349.6c11.2 9.6 25.6 15.2 40.8 15.2l120-0.8c16.8 0 32-6.4 44-18.4s17.6-27.2 17.6-44l-0.8-140c0-3.2 0-6.4 0-8 0-43.2-44.8-39.2-48-39.2h-76l-0.8-107.2c-1.6-32-14.4-44.8-43.2-47.2-0.8 0-4.8 0-4.8 0h-76l-0.8-107.2c0-12-7.2-23.2-17.6-28.8l-125.6-62.4c12-31.2 19.2-71.2 19.2-109.6 0-148.8-119.2-305.6-318.4-305.6zM332 536c-147.2 0-267.2-119.2-268-265.6-0.8-147.2 118.4-268 265.6-268.8h1.6c158.4 0 254.4 124 255.2 244.8 0 43.2-12 88-24 104.8-5.6 8-7.2 17.6-4.8 26.4s8.8 16.8 16.8 20.8l136.8 67.2 0.8 119.2c0 17.6 14.4 32 32 32 0 0 0 0 0 0h91.2l0.8 122.4c0 17.6 14.4 32 32 32 0 0 0 0 0 0h91.2l0.8 122.4-117.6-1.6-412.8-359.2c-8-6.4-17.6-9.6-28-7.2-29.6 6.4-55.2 10.4-69.6 10.4zM320 108.8v0c-39.2 0-76 15.2-103.2 43.2s-42.4 64-41.6 103.2c0 79.2 65.6 144.8 145.6 144.8 0 0 0.8 0 0.8 0 38.4 0 75.2-15.2 102.4-43.2s42.4-64 42.4-103.2c-1.6-80-66.4-144.8-146.4-144.8zM320 336c-44.8 0-81.6-36-81.6-80.8 0-21.6 8-42.4 23.2-57.6s36-24 57.6-24c45.6 0 81.6 36 81.6 80.8 0 21.6-8 42.4-23.2 57.6s-36 24-57.6 24v0z" />
<glyph unicode="&#xe92a;" glyph-name="setting-cog" horiz-adv-x="1037" d="M375.899 204.962c-51.848 0-93.975 42.127-93.975 93.975v16.203c-9.722 3.241-19.443 6.481-29.165 12.962l-9.722-12.962c-35.646-35.646-97.215-35.646-132.861 0-16.203 16.203-25.924 42.127-25.924 64.81s9.722 48.608 25.924 64.81l9.722 12.962c-3.241 9.722-9.722 19.443-12.962 29.165h-16.203c-51.848 0-93.975 42.127-93.975 93.975s42.127 93.975 93.975 93.975h16.203c3.241 9.722 6.481 19.443 12.962 29.165l-9.722 9.722c-16.203 16.203-25.924 42.127-25.924 64.81s9.722 48.608 25.924 64.81c35.646 35.646 97.215 35.646 132.861 0l9.722-9.722c9.722 3.241 19.443 9.722 29.165 12.962v19.443c0 51.848 42.127 93.975 93.975 93.975s93.975-42.127 93.975-93.975v-16.203c9.722-3.241 19.443-6.481 29.165-12.962l9.722 9.722c35.646 35.646 97.215 35.646 132.861 0 16.203-16.203 25.924-42.127 25.924-64.81s-9.722-48.608-25.924-64.81l-9.722-9.722c3.241-9.722 9.722-19.443 12.962-29.165h16.203c51.848 0 93.975-42.127 93.975-93.975s-42.127-93.975-93.975-93.975h-16.203c-3.241-9.722-6.481-19.443-12.962-29.165l9.722-9.722c35.646-35.646 35.646-97.215 0-132.861s-97.215-35.646-132.861 0l-9.722 9.722c-9.722-3.241-19.443-9.722-29.165-12.962v-16.203c0-51.848-42.127-93.975-93.975-93.975zM246.278 399.392c6.481 0 12.962 0 16.203-3.241 19.443-9.722 38.886-19.443 58.329-25.924 12.962-3.241 25.924-16.203 25.924-32.405v-38.886c0-16.203 12.962-29.165 29.165-29.165s29.165 12.962 29.165 29.165v38.886c0 16.203 9.722 29.165 25.924 32.405 22.684 6.481 42.127 12.962 58.329 25.924 12.962 6.481 29.165 6.481 38.886-3.241l29.165-29.165c9.722-9.722 29.165-9.722 42.127 0 9.722 9.722 9.722 29.165 0 42.127l-29.165 29.165c-9.722 9.722-12.962 25.924-3.241 38.886 9.722 19.443 19.443 38.886 25.924 58.329 3.241 12.962 16.203 25.924 32.405 25.924h38.886c16.203 0 29.165 12.962 29.165 29.165s-12.962 29.165-29.165 29.165h-38.886c-16.203 0-29.165 9.722-32.405 25.924-6.481 19.443-12.962 42.127-25.924 58.329-6.481 12.962-6.481 29.165 3.241 38.886l29.165 29.165c6.481 6.481 9.722 12.962 9.722 19.443s-3.241 16.203-9.722 19.443c-9.722 9.722-29.165 9.722-42.127 0l-29.165-29.165c-9.722-9.722-25.924-12.962-38.886-3.241-19.443 9.722-38.886 19.443-58.329 25.924-12.962 3.241-25.924 16.203-25.924 32.405v32.405c0 16.203-12.962 29.165-29.165 29.165s-29.165-12.962-29.165-29.165v-38.886c0-16.203-9.722-29.165-25.924-32.405-22.684-6.481-42.127-12.962-58.329-25.924-12.962-6.481-29.165-6.481-38.886 3.241l-29.165 29.165c-9.722 9.722-29.165 9.722-42.127 0-6.481-6.481-9.722-12.962-9.722-19.443s3.241-16.203 9.722-19.443l29.165-25.924c9.722-9.722 12.962-25.924 3.241-38.886-9.722-19.443-19.443-38.886-25.924-58.329-3.241-12.962-16.203-25.924-32.405-25.924h-35.646c-16.203 0-29.165-12.962-29.165-29.165s12.962-29.165 29.165-29.165h38.886c16.203 0 29.165-9.722 32.405-25.924 6.481-22.684 12.962-42.127 25.924-58.329 6.481-12.962 6.481-29.165-6.481-38.886l-29.165-29.165c-6.481-6.481-9.722-12.962-9.722-19.443s3.241-16.203 9.722-19.443c9.722-9.722 29.165-9.722 42.127 0l29.165 29.165c6.481 3.241 12.962 6.481 22.684 6.481zM375.899 457.722c-68.051 0-123.139 55.089-123.139 123.139s55.089 123.139 123.139 123.139 123.139-55.089 123.139-123.139c0-68.051-55.089-123.139-123.139-123.139zM375.899 642.43c-32.405 0-58.329-25.924-58.329-58.329s25.924-58.329 58.329-58.329c32.405 0 58.329 25.924 58.329 58.329s-25.924 58.329-58.329 58.329zM738.835-64c-9.722 0-16.203 0-22.684 3.241-16.203 6.481-32.405 19.443-38.886 35.646s-9.722 35.646-3.241 55.089v0c0 0-3.241 3.241-3.241 3.241v0c-32.405-16.203-77.772 0-93.975 32.405-16.203 35.646 0 77.772 32.405 93.975v0c0 0 0 3.241 0 3.241v0c-16.203 6.481-32.405 19.443-38.886 35.646s-9.722 35.646-3.241 55.089c12.962 35.646 55.089 55.089 90.734 42.127v0c0 0 3.241 3.241 3.241 3.241v0c-6.481 16.203-9.722 35.646-3.241 55.089s19.443 32.405 35.646 38.886c35.646 16.203 77.772 0 93.975-32.405v0c0 0 3.241 0 3.241 0v0c12.962 35.646 55.089 55.089 90.734 42.127 16.203-6.481 32.405-19.443 38.886-35.646s9.722-35.646 3.241-55.089v0c0 0 3.241-3.241 3.241-3.241v0c35.646 16.203 77.772 0 93.975-32.405 6.481-16.203 9.722-35.646 3.241-55.089-6.481-16.203-19.443-32.405-35.646-38.886v0c0 0 0-3.241 0-3.241v0c35.646-12.962 55.089-55.089 42.127-90.734-6.481-16.203-19.443-32.405-35.646-38.886-9.722-3.241-19.443-6.481-29.165-6.481v0c-9.722 0-16.203 0-22.684 3.241v0c0 0-3.241-3.241-3.241-3.241v0c6.481-16.203 9.722-35.646 3.241-55.089s-19.443-32.405-35.646-38.886c-35.646-16.203-77.772 0-93.975 32.405v0c0 0-3.241 0-3.241 0v0c-6.481-16.203-19.443-32.405-35.646-38.886-12.962-3.241-22.684-6.481-35.646-6.481zM677.266 104.506c9.722 0 19.443-3.241 25.924-12.962s16.203-16.203 25.924-25.924c12.962-9.722 16.203-22.684 12.962-38.886l-6.481-19.443c0-3.241 0-3.241 0-3.241s0-3.241 3.241-3.241h3.241c0 0 0 0 3.241 0 0 0 3.241 3.241 3.241 3.241l9.722 22.684c6.481 12.962 19.443 22.684 32.405 22.684s25.924 0 35.646 3.241c12.962 3.241 29.165-3.241 35.646-19.443l9.722-22.684c0-3.241 3.241-3.241 6.481-3.241s6.481 6.481 6.481 6.481l-9.722 22.684c-6.481 12.962-3.241 29.165 9.722 38.886 9.722 6.481 16.203 16.203 25.924 25.924 9.722 12.962 22.684 16.203 38.886 12.962l22.684-9.722 19.443-29.165-12.962 29.165c0 0 3.241 0 3.241 3.241s0 6.481-3.241 6.481l-22.684 9.722c-12.962 6.481-22.684 19.443-22.684 32.405s0 25.924-3.241 35.646c-3.241 16.203 3.241 29.165 19.443 35.646l22.684 9.722c3.241 0 3.241 6.481 3.241 6.481 0 3.241-3.241 3.241-6.481 3.241l-22.684-9.722c-12.962-6.481-29.165-3.241-38.886 9.722-6.481 9.722-16.203 16.203-25.924 25.924-12.962 9.722-16.203 22.684-12.962 38.886l9.722 22.684c0 3.241 0 3.241 0 3.241s0 3.241-3.241 3.241c-3.241 0-6.481 0-6.481-3.241l-22.684-22.684c-6.481-12.962-19.443-22.684-32.405-22.684s-25.924 0-35.646-3.241c-12.962-3.241-29.165 3.241-35.646 19.443l-9.722 22.684c0 3.241-3.241 3.241-6.481 3.241s-6.481-6.481-6.481-6.481l9.722-22.684c6.481-12.962 3.241-29.165-9.722-38.886-9.722-6.481-16.203-16.203-25.924-25.924-9.722-12.962-22.684-16.203-38.886-12.962l-22.684 9.722c-3.241 0-6.481 0-6.481-3.241s0-6.481 3.241-6.481l22.684-9.722c12.962-6.481 22.684-19.443 22.684-32.405s0-25.924 3.241-35.646c3.241-16.203-3.241-29.165-19.443-35.646l-19.443-12.962c-3.241 0-3.241-6.481-3.241-6.481 0-3.241 3.241-3.241 6.481-3.241l22.684 9.722c6.481 3.241 9.722 3.241 12.962 3.241zM800.405 81.823c-35.646 0-64.81 19.443-81.013 51.848-9.722 22.684-9.722 45.367-3.241 68.051s25.924 38.886 45.367 51.848c42.127 19.443 97.215 0 119.899-42.127 9.722-22.684 9.722-45.367 3.241-68.051-9.722-22.684-25.924-38.886-45.367-51.848-12.962-6.481-25.924-9.722-38.886-9.722zM800.405 195.241c-3.241 0-6.481 0-9.722-3.241-6.481-3.241-9.722-6.481-12.962-12.962s-3.241-12.962 0-19.443c6.481-12.962 19.443-16.203 32.405-12.962 6.481 3.241 9.722 6.481 12.962 12.962s3.241 12.962 0 19.443c-6.481 12.962-12.962 16.203-22.684 16.203z" />
<glyph unicode="&#xe92b;" glyph-name="cross" d="M601.6 448l409.6 409.6c25.6 25.6 25.6 64 0 89.6s-64 25.6-89.6 0l-409.6-409.6-409.6 409.6c-25.6 25.6-64 25.6-89.6 0s-25.6-64 0-89.6l409.6-409.6-409.6-396.8c-25.6-25.6-25.6-64 0-89.6 12.8-12.8 25.6-12.8 51.2-12.8 12.8 0 25.6 0 38.4 12.8l409.6 396.8 396.8-396.8c12.8-12.8 25.6-12.8 51.2-12.8s25.6 12.8 51.2 12.8c25.6 25.6 25.6 64 0 89.6l-409.6 396.8z" />
<glyph unicode="&#xe92c;" glyph-name="down-mini" d="M1011.2 665.6l-448-448c-25.6-25.6-64-25.6-89.6 0l-448 448c-25.6 25.6-25.6 64 0 89.6s64 25.6 89.6 0l396.8-409.6 396.8 396.8c12.8 12.8 25.6 12.8 51.2 12.8s25.6-12.8 51.2-12.8 25.6-51.2 0-76.8z" />
<glyph unicode="&#xe92d;" glyph-name="next-mini" d="M243.2-64c25.6 0 25.6 12.8 51.2 12.8l448 448c25.6 25.6 25.6 64 0 89.6l-448 448c-25.6 25.6-64 25.6-89.6 0s-25.6-64 0-89.6l409.6-396.8-396.8-396.8c-25.6-25.6-25.6-64 0-89.6 0-12.8 12.8-25.6 25.6-25.6z" />
<glyph unicode="&#xe92e;" glyph-name="previous-mini" d="M704-64c-12.8 0-25.6 0-51.2 12.8l-448 448c-25.6 25.6-25.6 64 0 89.6l448 448c25.6 25.6 64 25.6 89.6 0s25.6-64 0-89.6l-396.8-396.8 409.6-396.8c25.6-25.6 25.6-64 0-89.6-12.8-25.6-25.6-25.6-51.2-25.6z" />
<glyph unicode="&#xe92f;" glyph-name="up-mini" d="M1011.2 294.4l-448 448c-25.6 25.6-64 25.6-89.6 0l-448-448c-25.6-25.6-25.6-64 0-89.6s64-25.6 89.6 0l396.8 409.6 396.8-396.8c12.8-12.8 25.6-12.8 51.2-12.8s25.6 12.8 51.2 12.8 25.6 51.2 0 76.8z" />
<glyph unicode="&#xe930;" glyph-name="trash" horiz-adv-x="931" d="M480 627.2c-19.2 0-32-12.8-32-32v-441.6c0-19.2 12.8-32 32-32s32 12.8 32 32v441.6c0 19.2-12.8 32-32 32zM316.8 627.2c-19.2 0-32-12.8-32-32v-441.6c0-19.2 12.8-32 32-32s32 12.8 32 32v441.6c0 19.2-16 32-32 32zM643.2 121.6c19.2 0 32 12.8 32 32v441.6c0 19.2-12.8 32-32 32s-32-12.8-32-32v-441.6c0-16 16-32 32-32zM899.2 828.8h-275.2v35.2c0 54.4-41.6 96-96 96h-121.6c-54.4 0-96-41.6-96-96v-35.2h-278.4c-19.2 0-32-12.8-32-32s12.8-32 32-32h86.4v-732.8c0-54.4 44.8-96 99.2-96h499.2c54.4 0 99.2 44.8 99.2 96v732.8h86.4c19.2 0 32 12.8 32 32s-16 32-35.2 32zM374.4 864c0 19.2 12.8 32 32 32h121.6c19.2 0 32-12.8 32-32v-35.2h-185.6v35.2zM748.8 32c0-19.2-16-32-35.2-32h-496c-19.2 0-35.2 16-35.2 32v732.8h569.6v-732.8z" />
<glyph unicode="&#xe931;" glyph-name="desktop" d="M928 928h-832c-54.4 0-96-41.6-96-96v-627.2c0-51.2 41.6-92.8 92.8-92.8h387.2v-73.6h-166.4c-19.2 0-32-12.8-32-32s12.8-32 32-32h400c19.2 0 32 12.8 32 32s-12.8 32-32 32h-166.4v73.6h387.2c51.2 0 92.8 41.6 92.8 92.8v627.2c-3.2 54.4-44.8 96-99.2 96zM96 864h832c19.2 0 32-12.8 32-32v-496h-896v496c0 19.2 16 32 32 32zM96 179.2c-19.2 0-32 12.8-32 32v64h896v-64c0-19.2-12.8-32-32-32h-832zM742.4 419.2c0-17.673-14.327-32-32-32s-32 14.327-32 32c0 17.673 14.327 32 32 32s32-14.327 32-32zM614.4 419.2c0-17.673-14.327-32-32-32s-32 14.327-32 32c0 17.673 14.327 32 32 32s32-14.327 32-32zM483.2 419.2c0-17.673-14.327-32-32-32s-32 14.327-32 32c0 17.673 14.327 32 32 32s32-14.327 32-32zM355.2 419.2c0-17.673-14.327-32-32-32s-32 14.327-32 32c0 17.673 14.327 32 32 32s32-14.327 32-32z" />
<glyph unicode="&#xe932;" glyph-name="laptop" d="M947.2 249.6c3.2 9.6 6.4 22.4 6.4 35.2v451.2c0 54.4-41.6 96-96 96h-691.2c-54.4 0-96-41.6-96-96v-454.4c0-12.8 3.2-22.4 6.4-35.2-44.8-9.6-76.8-48-76.8-96 0-54.4 44.8-96 96-96h828.8c54.4 0 96 44.8 96 96 3.2 48-32 89.6-73.6 99.2zM134.4 736c0 19.2 12.8 32 32 32h691.2c19.2 0 32-12.8 32-32v-454.4c0-16-12.8-28.8-28.8-32h-697.6c-16 0-28.8 16-28.8 32v454.4zM924.8 121.6h-828.8c-19.2 0-32 16-32 32s16 32 32 32h64c3.2 0 3.2 0 6.4 0h691.2c3.2 0 3.2 0 6.4 0h64c19.2 0 32-16 32-32s-16-32-35.2-32zM745.6 342.4c0-19.44-15.76-35.2-35.2-35.2s-35.2 15.76-35.2 35.2c0 19.44 15.76 35.2 35.2 35.2s35.2-15.76 35.2-35.2zM611.2 342.4c0-19.44-15.76-35.2-35.2-35.2s-35.2 15.76-35.2 35.2c0 19.44 15.76 35.2 35.2 35.2s35.2-15.76 35.2-35.2zM480 342.4c0-19.44-15.76-35.2-35.2-35.2s-35.2 15.76-35.2 35.2c0 19.44 15.76 35.2 35.2 35.2s35.2-15.76 35.2-35.2zM348.8 342.4c0-19.44-15.76-35.2-35.2-35.2s-35.2 15.76-35.2 35.2c0 19.44 15.76 35.2 35.2 35.2s35.2-15.76 35.2-35.2z" />
<glyph unicode="&#xe933;" glyph-name="google-plus" horiz-adv-x="1034" d="M481.312 355.937c-80.757 35.533-71.066 125.981-64.606 158.284 90.448 32.303 155.054 116.29 155.054 216.429 0 64.606-25.842 122.751-71.066 164.744h119.521c19.382 0 32.303 12.921 32.303 32.303s-12.921 32.303-32.303 32.303h-281.035c-125.981 0-229.35-103.369-229.35-229.35s103.369-229.35 229.35-229.35c3.23 0 6.461 0 6.461 0-3.23-35.533 0-80.757 19.382-122.751-12.921 0-25.842 3.23-41.994 3.23-184.126 0-326.259-96.909-326.259-222.89s145.363-222.89 326.259-222.89 326.259 96.909 326.259 222.89c6.461 83.987-64.606 158.284-167.975 197.047zM177.666 730.65c0 90.448 74.297 164.744 164.744 164.744s164.744-74.297 164.744-164.744-74.297-164.744-164.744-164.744-164.744 74.297-164.744 164.744zM326.259 0.606c-142.132 0-261.653 71.066-261.653 158.284s119.521 158.284 261.653 158.284c142.132 0 261.653-71.066 261.653-158.284s-116.29-158.284-261.653-158.284zM1001.388 801.716h-125.981v125.981c0 19.382-12.921 32.303-32.303 32.303s-32.303-12.921-32.303-32.303v-125.981h-125.981c-19.382 0-32.303-12.921-32.303-32.303s12.921-32.303 32.303-32.303h125.981v-125.981c0-19.382 12.921-32.303 32.303-32.303s32.303 12.921 32.303 32.303v125.981h125.981c19.382 0 32.303 12.921 32.303 32.303s-16.151 32.303-32.303 32.303z" />
<glyph unicode="&#xe934;" glyph-name="instagram" horiz-adv-x="1018" d="M921.6 960h-825.6c-54.4 0-96-41.6-96-96v-832c0-54.4 41.6-96 96-96h825.6c54.4 0 96 41.6 96 96v832c0 51.2-44.8 96-96 96zM96 896h624v-112c0-19.2 12.8-32 32-32s32 12.8 32 32v112h137.6c19.2 0 32-12.8 32-32v-259.2h-249.6c-44.8 57.6-115.2 96-198.4 96-80 0-150.4-38.4-198.4-96h-243.2v259.2c0 16 12.8 32 32 32zM508.8 636.8c102.4 0 185.6-83.2 185.6-185.6s-83.2-185.6-185.6-185.6-185.6 83.2-185.6 185.6 83.2 185.6 185.6 185.6zM921.6-3.2h-825.6c-19.2 0-32 12.8-32 32v512h211.2c-9.6-28.8-16-57.6-16-89.6 0-137.6 112-249.6 249.6-249.6s249.6 112 249.6 249.6c0 32-6.4 60.8-16 89.6h211.2v-508.8c0-19.2-16-35.2-32-35.2z" />
<glyph unicode="&#xe935;" glyph-name="youtube" d="M518.4 80c0 0 0 0 0 0-112 0-217.6 0-265.6 3.2h-25.6c-76.8 3.2-121.6 6.4-166.4 54.4-76.8 80-76.8 537.6 0 620.8 44.8 48 89.6 51.2 166.4 54.4h25.6c51.2 3.2 166.4 3.2 259.2 3.2s208 0 259.2-3.2h25.6c76.8-3.2 121.6-6.4 166.4-54.4 67.2-64 86.4-521.6 0-617.6-44.8-48-92.8-51.2-169.6-54.4h-25.6c-51.2-3.2-144-6.4-249.6-6.4zM512 752c-118.4 0-214.4 0-256-3.2h-28.8c-73.6-3.2-96-6.4-124.8-32-51.2-60.8-51.2-476.8 0-534.4 25.6-28.8 48-28.8 124.8-32h28.8c44.8-3.2 150.4-3.2 262.4-3.2v0c105.6 0 198.4 0 249.6 3.2h25.6c76.8 3.2 99.2 6.4 124.8 32 64 76.8 41.6 492.8 0 531.2-28.8 28.8-51.2 32-124.8 35.2h-28.8c-38.4 3.2-137.6 3.2-252.8 3.2zM412.8 291.2c-6.4 0-12.8 0-16 3.2-9.6 6.4-16 16-16 28.8v272c0 12.8 6.4 22.4 16 28.8s22.4 6.4 32 0l259.2-134.4c9.6-6.4 16-16 16-28.8s-6.4-22.4-16-28.8l-259.2-134.4c-6.4-6.4-12.8-6.4-16-6.4zM444.8 540.8v-166.4l156.8 83.2-156.8 83.2z" />
<glyph unicode="&#xe936;" glyph-name="rss" d="M208-32c-99.2 0-176 80-176 176 0 99.2 80 176 176 176 99.2 0 176-80 176-176 0-99.2-76.8-176-176-176zM208 256c-60.8 0-112-51.2-112-112 0-64 51.2-112 112-112 64 0 112 51.2 112 112s-48 112-112 112zM617.6-64c-3.2 0-6.4 0-9.6 3.2-16 6.4-25.6 22.4-19.2 41.6 16 44.8 22.4 89.6 22.4 137.6 0 236.8-195.2 432-432 432-44.8 0-89.6-6.4-134.4-22.4-19.2-9.6-35.2 0-41.6 16s3.2 35.2 19.2 41.6c51.2 16 102.4 25.6 153.6 25.6 275.2-3.2 499.2-224 499.2-499.2 0-54.4-9.6-105.6-25.6-156.8-6.4-12.8-19.2-19.2-32-19.2zM979.2-64c-3.2 0-3.2 0-6.4 0-16 3.2-28.8 19.2-25.6 38.4 9.6 48 12.8 96 12.8 140.8 0 432-352 780.8-780.8 780.8-44.8 0-89.6-3.2-137.6-12.8-16-3.2-35.2 9.6-38.4 25.6s9.6 35.2 25.6 38.4c51.2 9.6 102.4 12.8 150.4 12.8 467.2 0 844.8-377.6 844.8-844.8 0-48-3.2-99.2-16-153.6 0-16-16-25.6-28.8-25.6z" />
<glyph unicode="&#xe937;" glyph-name="flickr" d="M236.8 214.4c-131.2 0-236.8 105.6-236.8 236.8s105.6 236.8 236.8 236.8c131.2 0 236.8-105.6 236.8-236.8s-105.6-236.8-236.8-236.8zM236.8 624c-96 0-172.8-76.8-172.8-172.8s76.8-172.8 172.8-172.8c96 0 172.8 76.8 172.8 172.8s-76.8 172.8-172.8 172.8zM790.4 214.4c-131.2 0-236.8 105.6-236.8 236.8s105.6 236.8 236.8 236.8c131.2 0 236.8-105.6 236.8-236.8-3.2-131.2-108.8-236.8-236.8-236.8zM790.4 624c-96 0-172.8-76.8-172.8-172.8s76.8-172.8 172.8-172.8c96 0 172.8 76.8 172.8 172.8-3.2 96-80 172.8-172.8 172.8z" />
<glyph unicode="&#xe938;" glyph-name="dribbble" d="M1020.8 419.2c0 9.6 0 19.2 0 28.8 0 140.8-57.6 268.8-150.4 361.6-3.2 3.2-3.2 6.4-9.6 9.6-3.2 3.2-3.2 3.2-6.4 3.2-92.8 83.2-214.4 137.6-345.6 137.6-64 0-124.8-12.8-182.4-35.2-3.2 0-3.2 0-6.4-3.2-160-64-281.6-204.8-313.6-377.6 0 0 0 0 0 0s0 0 0 0c-6.4-32-9.6-64-9.6-96 0-147.2 64-281.6 166.4-374.4 3.2-3.2 3.2-3.2 6.4-6.4 89.6-80 208-131.2 339.2-131.2 80 0 153.6 19.2 220.8 51.2 3.2 0 6.4 3.2 6.4 3.2 156.8 80 268.8 236.8 281.6 422.4 3.2 3.2 3.2 3.2 3.2 6.4zM844.8 745.6c67.2-76.8 112-176 115.2-288-64 19.2-128 28.8-195.2 28.8-44.8 0-89.6-6.4-134.4-12.8-12.8 28.8-25.6 54.4-38.4 83.2 92.8 48 179.2 112 252.8 188.8zM800 793.6c-67.2-73.6-147.2-134.4-236.8-176-48 92.8-105.6 182.4-172.8 265.6 38.4 9.6 80 16 121.6 16 108.8-3.2 208-41.6 288-105.6zM326.4 857.6c67.2-83.2 124.8-172.8 176-265.6-83.2-32-169.6-48-259.2-48-54.4 0-112 6.4-166.4 19.2 35.2 131.2 128 240 249.6 294.4zM64 448c0 16 0 35.2 3.2 51.2 57.6-12.8 118.4-19.2 176-19.2 99.2 0 198.4 19.2 288 54.4 12.8-25.6 22.4-48 35.2-73.6-160-51.2-300.8-160-384-310.4-73.6 76.8-118.4 182.4-118.4 297.6zM230.4 102.4c76.8 144 208 252.8 361.6 297.6 44.8-115.2 76.8-236.8 92.8-361.6-54.4-22.4-112-35.2-172.8-35.2-108.8-3.2-204.8 35.2-281.6 99.2zM745.6 67.2c-19.2 118.4-48 233.6-92.8 345.6 35.2 6.4 73.6 9.6 112 9.6 67.2 0 131.2-9.6 192-32-19.2-134.4-99.2-252.8-211.2-323.2z" />
<glyph unicode="&#xe939;" glyph-name="facebook" horiz-adv-x="570" d="M358.4-64h-179.2c-19.2 0-32 12.8-32 32v384h-115.2c-19.2 0-32 12.8-32 32v179.2c0 19.2 12.8 32 32 32h115.2v147.2c0 118.4 96 214.4 214.4 214.4h176c19.2 0 32-12.8 32-32v-179.2c0-19.2-12.8-32-32-32h-99.2c-25.6 0-48-22.4-48-48v-70.4h147.2c9.6 0 19.2-3.2 25.6-12.8 6.4-6.4 9.6-16 6.4-25.6l-35.2-179.2c-3.2-16-16-25.6-32-25.6h-108.8v-387.2c-3.2-16-19.2-28.8-35.2-28.8zM211.2 0h115.2v384c0 19.2 12.8 32 32 32h115.2l22.4 115.2h-140.8c-19.2 0-32 12.8-32 32v105.6c0 60.8 51.2 112 112 112h67.2v115.2h-144c-83.2 0-150.4-67.2-150.4-150.4v-179.2c0-19.2-12.8-32-32-32h-115.2v-115.2h115.2c19.2 0 32-12.8 32-32v-387.2z" />
<glyph unicode="&#xe93a;" glyph-name="twitter" d="M1011.2 579.2l-70.4 44.8c-32 115.2-134.4 192-252.8 192-131.2 0-240-92.8-259.2-217.6-44.8 6.4-131.2 28.8-192 128-6.4 9.6-19.2 16-32 16-12.8-3.2-22.4-9.6-25.6-22.4-32-105.6-16-198.4 48-272-19.2-3.2-38.4-3.2-60.8-3.2-44.8 0-86.4 6.4-118.4 22.4-12.8 6.4-25.6 3.2-35.2-6.4s-12.8-22.4-9.6-32c6.4-19.2 12.8-35.2 19.2-51.2 0 0 0-3.2 3.2-3.2l51.2-86.4c0 0 0-3.2 3.2-3.2 92.8-121.6 230.4-192 384-192 240 0 438.4 172.8 473.6 409.6l64 25.6 9.6 3.2c12.8 3.2 19.2 16 19.2 25.6-3.2 3.2-9.6 16-19.2 22.4zM457.6 150.4c-131.2 0-252.8 60.8-329.6 163.2l-38.4 67.2c22.4-3.2 48-6.4 73.6-6.4 51.2 0 105.6 9.6 137.6 22.4 9.6 3.2 19.2 12.8 19.2 25.6s-3.2 22.4-12.8 28.8c-60.8 48-89.6 105.6-83.2 179.2 70.4-73.6 153.6-92.8 198.4-99.2 3.2-32 9.6-67.2 25.6-96 6.4-12.8 16-19.2 28.8-19.2 3.2 0 9.6 0 12.8 3.2 16 6.4 22.4 25.6 16 41.6-48 99.2-6.4 217.6 89.6 268.8 0 0 0 0 3.2 0 25.6 12.8 54.4 19.2 86.4 19.2 92.8 0 176-64 195.2-156.8 3.2-9.6 6.4-16 12.8-19.2l25.6-16-28.8-12.8c0 0-3.2 0-3.2-3.2l-57.6-19.2c-16-6.4-25.6-25.6-19.2-41.6 6.4-12.8 16-19.2 28.8-19.2 3.2 0 6.4 0 12.8 3.2l9.6 3.2c-44.8-185.6-208-316.8-403.2-316.8zM832 611.2c0 41.6-35.2 76.8-76.8 76.8s-76.8-35.2-76.8-76.8 35.2-76.8 76.8-76.8 76.8 35.2 76.8 76.8zM755.2 598.4c-6.4 0-12.8 6.4-12.8 12.8s6.4 12.8 12.8 12.8 12.8-6.4 12.8-12.8-6.4-12.8-12.8-12.8z" />
<glyph unicode="&#xe93b;" glyph-name="skype" horiz-adv-x="1030" d="M998.239 370.717c12.881 206.088-45.082 344.553-193.208 466.918-144.906 119.145-331.673 99.824-379.975 93.384-19.321 9.66-70.843 25.761-128.805 25.761-77.283 0-148.126-28.981-206.088-80.503-122.365-112.704-90.164-257.61-54.742-328.453-6.44-38.642-22.541-157.786 32.201-296.252 122.365-257.61 338.113-296.252 454.038-296.252 35.421 0 64.403 3.22 80.503 6.44 38.642-16.101 86.943-25.761 132.025-25.761 80.503 0 154.566 28.981 215.748 80.503 122.365 106.264 77.283 289.811 48.302 354.214zM908.075 64.805c-64.403-54.742-128.805-64.403-173.887-64.403-54.742 0-93.384 16.101-112.704 25.761-3.22 3.22-9.66 3.22-12.881 3.22s-6.44 0-6.44 0c-6.44-3.22-35.421-6.44-77.283-6.44-103.044 0-289.811 35.421-396.075 257.61-57.962 141.686-25.761 264.050-25.761 267.27 3.22 9.66 0 16.101-3.22 25.761-3.22 6.44-86.943 148.126 35.421 260.83 48.302 41.862 103.044 64.403 164.226 64.403 64.403 0 109.484-22.541 112.704-22.541 6.44-3.22 12.881-3.22 22.541-3.22 0 0 32.201 6.44 80.503 6.44 70.843 0 173.887-16.101 257.61-83.723 135.245-109.484 183.547-231.849 170.667-421.836 0-6.44 0-12.881 3.22-16.101 6.44-41.862 61.182-206.088-38.642-293.031zM656.906 515.623c-22.541 6.44-61.182 16.101-99.824 25.761-32.201 6.44-67.623 16.101-93.384 22.541-6.44 3.22-12.881 6.44-12.881 12.881 0 9.66 16.101 25.761 51.522 28.981 67.623 6.44 99.824-35.421 99.824-38.642 0 0 0-3.22 3.22-3.22 25.761-32.201 54.742-38.642 74.063-38.642 22.541 0 38.642 6.44 48.302 12.881 12.881 6.44 28.981 25.761 35.421 51.522 3.22 16.101 3.22 41.862-16.101 70.843-45.082 61.182-135.245 99.824-238.289 99.824-64.403 0-151.346-22.541-206.088-83.723-32.201-38.642-45.082-83.723-38.642-132.025 19.321-141.686 196.428-173.887 289.811-189.987h3.22c19.321-3.22 32.201-12.881 32.201-28.981s-16.101-32.201-45.082-35.421c-70.843-6.44-109.484 35.421-132.025 64.403-22.541 25.761-45.082 28.981-61.182 28.981-25.761 0-45.082-12.881-48.302-16.101-38.642-25.761-48.302-67.623-22.541-109.484 67.623-122.365 215.748-132.025 260.83-132.025 80.503 0 238.289 38.642 251.17 180.327 6.44 161.006-96.604 196.428-135.245 209.308zM721.308 325.635c-9.66-122.365-183.547-122.365-186.767-122.365-35.421 0-151.346 6.44-202.868 99.824-6.44 9.66-6.44 12.881 6.44 22.541 0 0 6.44 3.22 12.881 3.22 3.22 0 9.66 0 12.881-6.44 25.761-32.201 83.723-99.824 189.987-86.943 67.623 6.44 99.824 54.742 103.044 96.604 0 38.642-25.761 83.723-83.723 93.384h-3.22c-77.283 12.881-225.409 41.862-238.289 135.245-3.22 32.201 3.22 57.962 22.541 83.723 32.201 35.421 93.384 61.182 154.566 61.182 99.824 0 161.006-38.642 186.767-74.063 12.881-19.321 0-28.981 0-28.981-3.22 0-6.44-3.22-16.101-3.22-3.22 0-12.881 0-22.541 12.881s-57.962 70.843-154.566 64.403c-70.843-6.44-106.264-48.302-112.704-86.943-3.22-35.421 19.321-67.623 57.962-80.503 28.981-6.44 64.403-16.101 96.604-25.761 38.642-9.66 74.063-19.321 93.384-25.761 38.642-16.101 93.384-35.421 83.723-132.025z" />
<glyph unicode="&#xe93c;" glyph-name="android" d="M849.92 676.693c-13.653 0-27.307-3.413-37.547-6.827-23.893 92.16-85.333 167.253-167.253 208.213l27.307 27.307c13.653 13.653 13.653 34.133 0 44.373s-34.133 13.653-44.373 0l-47.787-47.787c-23.893 6.827-47.787 10.24-75.093 10.24s-51.2-3.413-75.093-10.24l-47.787 47.787c-13.653 13.653-34.133 13.653-44.373 0s-13.653-34.133 0-44.373l27.307-27.307c-81.92-40.96-143.36-116.053-163.84-208.213-10.24 6.827-23.893 6.827-37.547 6.827-51.2 0-92.16-40.96-92.16-92.16v-249.173c0-51.2 40.96-92.16 92.16-92.16 10.24 0 20.48 3.413 27.307 3.413v-109.227c0-17.067 13.653-30.72 30.72-30.72h75.093v-78.507c0-51.2 40.96-92.16 92.16-92.16s92.16 40.96 92.16 92.16v78.507h44.373v-78.507c0-51.2 40.96-92.16 92.16-92.16s92.16 40.96 92.16 92.16v78.507h78.507c17.067 0 30.72 13.653 30.72 30.72v109.227c10.24-3.413 17.067-3.413 27.307-3.413 51.2 0 92.16 40.96 92.16 92.16v249.173c3.413 51.2-37.547 92.16-88.747 92.16zM433.493 837.12c0 0 0 0 0 0 23.893 6.827 47.787 10.24 75.093 10.24 23.893 0 47.787-3.413 71.68-10.24 3.413 0 3.413 0 6.827 0 102.4-30.72 174.080-126.293 174.080-238.933h-508.587c3.413 109.227 78.507 204.8 180.907 238.933zM160.427 308.053c-17.067 0-27.307 13.653-27.307 27.307v249.173c0 17.067 13.653 27.307 27.307 27.307s27.307-13.653 27.307-27.307v-249.173c3.413-17.067-10.24-27.307-27.307-27.307zM713.387 171.52v10.24c0 17.067-13.653 30.72-30.72 30.72s-30.72-13.653-30.72-30.72v-150.187c0-17.067-13.653-27.307-27.307-27.307s-27.307 13.653-27.307 27.307v109.227c0 0 0 0 0 0s0 0 0 0v40.96c0 17.067-13.653 30.72-30.72 30.72s-30.72-13.653-30.72-30.72v-10.24h-44.373v10.24c0 17.067-13.653 30.72-30.72 30.72s-44.373-17.067-44.373-34.133v-150.187c0-17.067-13.653-27.307-27.307-27.307s-27.307 13.653-27.307 27.307v150.187c0 17.067-13.653 30.72-30.72 30.72s-30.72-13.653-30.72-30.72v-10.24h-40.96v361.813h498.347v-197.973c0-3.413 0-6.827 0-6.827v-157.013h-44.373zM877.227 335.36c0-17.067-13.653-27.307-27.307-27.307s-27.307 10.24-27.307 23.893v259.413c3.413 13.653 13.653 23.893 27.307 23.893 17.067 0 27.307-13.653 27.307-27.307v-252.587zM399.36 645.973c27.307 0 51.2 23.893 51.2 51.2s-23.893 51.2-51.2 51.2c-27.307 0-51.2-23.893-51.2-51.2 3.413-27.307 23.893-51.2 51.2-51.2zM610.987 645.973c27.307 0 51.2 23.893 51.2 51.2s-23.893 51.2-51.2 51.2c-27.307 0-51.2-23.893-51.2-51.2s20.48-51.2 51.2-51.2z" />
<glyph unicode="&#xe93d;" glyph-name="windows" d="M911.36-64c-3.413 0-3.413 0-6.827 0l-395.947 71.68c-13.653 3.413-27.307 17.067-27.307 30.72v354.987c0 17.067 13.653 30.72 30.72 30.72h395.947c17.067 0 30.72-13.653 30.72-30.72v-423.253c0-10.24-3.413-17.067-10.24-23.893-3.413-6.827-10.24-10.24-17.067-10.24zM546.133 65.707l334.507-58.027v351.573h-334.507v-293.547zM413.013 14.507c-3.413 0-3.413 0-6.827 0l-296.96 51.2c-13.653 3.413-27.307 17.067-27.307 30.72v296.96c0 17.067 13.653 30.72 30.72 30.72h300.373c17.067 0 30.72-13.653 30.72-30.72v-344.747c0-10.24-3.413-17.067-10.24-23.893s-13.653-10.24-20.48-10.24zM146.773 123.733l232.107-40.96v276.48h-232.107v-235.52zM911.36 471.893h-395.947c-17.067 0-30.72 13.653-30.72 30.72v354.987c0 17.067 10.24 27.307 27.307 30.72l395.947 71.68c10.24 0 20.48 0 27.307-6.827s10.24-13.653 10.24-23.893v-423.253c-3.413-20.48-17.067-34.133-34.133-34.133zM546.133 536.747h334.507v354.987l-334.507-58.027v-296.96zM413.013 471.893h-296.96c-17.067 0-30.72 13.653-30.72 30.72v293.547c0 17.067 10.24 27.307 27.307 30.72l296.96 51.2c10.24 0 20.48 0 27.307-6.827s10.24-13.653 10.24-23.893v-344.747c-3.413-17.067-17.067-30.72-34.133-30.72zM146.773 536.747h232.107v276.48l-232.107-40.96v-235.52z" />
<glyph unicode="&#xe93e;" glyph-name="control" d="M883.2 697.6h-396.8c-19.2 0-32-12.8-32-32s12.8-32 32-32h396.8c19.2 0 32 12.8 32 32s-12.8 32-32 32zM140.8 633.6h57.6c12.8-41.6 51.2-73.6 99.2-73.6 57.6 0 105.6 48 105.6 105.6s-44.8 102.4-102.4 102.4c-48 0-86.4-28.8-99.2-70.4h-60.8c-19.2 0-32-12.8-32-32s12.8-32 32-32zM300.8 704c22.4 0 41.6-19.2 41.6-41.6s-19.2-41.6-41.6-41.6c-22.4 3.2-41.6 19.2-41.6 41.6s19.2 41.6 41.6 41.6zM883.2 313.6h-352c-19.2 0-32-12.8-32-32s12.8-32 32-32h352c19.2 0 32 12.8 32 32s-12.8 32-32 32zM345.6 384c-44.8 0-86.4-28.8-99.2-70.4h-105.6c-19.2 0-32-12.8-32-32s12.8-32 32-32h105.6c12.8-41.6 51.2-73.6 99.2-73.6 57.6 0 105.6 48 105.6 105.6 0 54.4-48 102.4-105.6 102.4zM345.6 236.8c-22.4 0-41.6 19.2-41.6 41.6 0 0 0 0 0 0s0 0 0 0c0 22.4 19.2 38.4 41.6 38.4s41.6-19.2 41.6-41.6c0-19.2-19.2-38.4-41.6-38.4zM883.2 505.6h-80c-16 41.6-54.4 70.4-99.2 70.4-57.6 0-105.6-48-105.6-105.6s48-105.6 105.6-105.6c48 0 86.4 32 99.2 73.6h80c19.2 0 32 12.8 32 32s-12.8 35.2-32 35.2zM704 428.8c-22.4 0-41.6 19.2-41.6 41.6s19.2 41.6 41.6 41.6c22.4 0 41.6-19.2 41.6-41.6s-19.2-41.6-41.6-41.6zM140.8 441.6h377.6c19.2 0 32 12.8 32 32s-12.8 32-32 32h-377.6c-19.2 0-32-12.8-32-32s12.8-32 32-32zM864 896h-704c-89.6 0-160-70.4-160-160v-569.6c0-89.6 70.4-160 160-160h704c89.6 0 160 70.4 160 160v569.6c0 89.6-70.4 160-160 160zM960 166.4c0-54.4-41.6-96-96-96h-704c-54.4 0-96 41.6-96 96v569.6c0 54.4 41.6 96 96 96h704c54.4 0 96-41.6 96-96v-569.6z" />
<glyph unicode="&#xe93f;" glyph-name="video" d="M928 912h-832c-54.4 0-96-41.6-96-96v-739.2c0-54.4 41.6-96 96-96h832c54.4 0 96 41.6 96 96v739.2c0 54.4-41.6 96-96 96zM64 672h896v-448h-896v448zM96 848h832c19.2 0 32-12.8 32-32v-80h-896v80c0 19.2 12.8 32 32 32zM928 44.8h-832c-19.2 0-32 12.8-32 32v80h896v-80c0-16-12.8-32-32-32zM198.4 758.4h92.8c19.2 0 32 12.8 32 32s-12.8 32-32 32h-92.8c-19.2 0-32-12.8-32-32s12.8-32 32-32zM464 758.4h92.8c19.2 0 32 12.8 32 32s-12.8 32-32 32h-92.8c-19.2 0-32-12.8-32-32s16-32 32-32zM732.8 758.4h92.8c19.2 0 32 12.8 32 32s-12.8 32-32 32h-92.8c-19.2 0-32-12.8-32-32s12.8-32 32-32zM291.2 134.4h-92.8c-19.2 0-32-12.8-32-32s12.8-32 32-32h92.8c19.2 0 32 12.8 32 32s-12.8 32-32 32zM560 134.4h-92.8c-19.2 0-32-12.8-32-32s12.8-32 32-32h92.8c19.2 0 32 12.8 32 32s-16 32-32 32zM825.6 134.4h-92.8c-19.2 0-32-12.8-32-32s12.8-32 32-32h92.8c19.2 0 32 12.8 32 32s-12.8 32-32 32zM636.8 496l-217.6 131.2c-9.6 6.4-19.2 9.6-28.8 9.6-32 0-57.6-25.6-57.6-57.6v-259.2c0-32 25.6-57.6 57.6-57.6 9.6 0 22.4 3.2 28.8 9.6l217.6 131.2c19.2 9.6 28.8 28.8 28.8 51.2 0 12.8-9.6 32-28.8 41.6zM393.6 326.4v243.2l201.6-121.6-201.6-121.6z" />
<glyph unicode="&#xe940;" glyph-name="badge" horiz-adv-x="710" d="M355.2 422.4c99.2 0 182.4 83.2 182.4 182.4s-83.2 182.4-182.4 182.4-182.4-83.2-182.4-182.4 83.2-182.4 182.4-182.4zM355.2 723.2c64 0 118.4-54.4 118.4-118.4s-54.4-118.4-118.4-118.4-118.4 54.4-118.4 118.4c0 64 54.4 118.4 118.4 118.4zM595.2 342.4c70.4 64 118.4 160 118.4 262.4-3.2 195.2-160 355.2-358.4 355.2-195.2 0-355.2-160-355.2-355.2 0-112 51.2-211.2 131.2-275.2l-99.2-275.2c-3.2-9.6-3.2-22.4 6.4-32 6.4-9.6 19.2-12.8 28.8-12.8l108.8 16 70.4-83.2c6.4-3.2 16-6.4 25.6-6.4 3.2 0 3.2 0 6.4 0 9.6 3.2 19.2 9.6 25.6 19.2l64 179.2 64-179.2c3.2-9.6 12.8-19.2 25.6-19.2 3.2 0 3.2 0 6.4 0 9.6 0 19.2 3.2 25.6 9.6l70.4 83.2 108.8-16c12.8-3.2 22.4 3.2 28.8 12.8s9.6 19.2 6.4 32l-108.8 284.8zM64 604.8c0 160 131.2 291.2 291.2 291.2s291.2-131.2 291.2-291.2c0-160-131.2-291.2-291.2-291.2s-291.2 131.2-291.2 291.2zM332.8 230.4l-73.6-198.4-48 54.4c-6.4 6.4-16 9.6-28.8 9.6l-70.4-12.8 76.8 208c41.6-22.4 89.6-38.4 137.6-41.6l6.4-16v-3.2zM550.4 96c-9.6 0-22.4-3.2-28.8-9.6l-48-54.4-76.8 211.2c0 0 0 0 0 0l-3.2 9.6c54.4 6.4 105.6 22.4 147.2 51.2l80-217.6-70.4 9.6z" />
<glyph unicode="&#xe941;" glyph-name="rocket" horiz-adv-x="1027" d="M1027.21 889.379c3.21 19.26-3.21 38.52-19.26 51.361-12.84 12.84-32.1 19.26-51.361 19.26-199.022-22.47-385.204-112.351-526.445-253.592-35.31-35.31-67.411-73.831-96.301-112.351-109.141 9.63-215.072-25.68-295.323-102.721-3.21-3.21-9.63-9.63-12.84-12.84-19.26-22.47-22.47-51.361-9.63-77.041s41.73-38.52 70.621-35.31c64.201 9.63 125.191 0 182.972-28.89-25.68-35.31-41.73-73.831-51.361-115.561-3.21-19.26 3.21-38.52 16.050-54.571 12.84-12.84 25.68-16.050 41.73-16.050 3.21 0 6.42 0 12.84 0 41.73 9.63 80.251 25.68 115.561 51.361 28.89-54.571 38.52-118.771 28.89-182.972-3.21-28.89 9.63-54.571 35.31-70.621 9.63-6.42 19.26-9.63 32.1-9.63 16.050 0 32.1 6.42 44.94 16.050 3.21 3.21 9.63 6.42 12.84 12.84 73.831 73.831 112.351 182.972 102.721 292.113 41.73 28.89 80.251 60.991 115.561 96.301 138.031 147.661 227.912 337.053 250.382 532.865zM642.006 334.044c-16.050 48.15-44.94 96.301-86.671 141.241-12.84 12.84-32.1 12.84-44.94 0s-12.84-32.1 0-44.94c141.241-141.241 83.461-324.213 0-410.884-3.21-3.21-6.42-6.42-12.84-9.63 0 0 0 3.21 0 3.21 16.050 89.881-6.42 182.972-54.571 260.013 0 0 0 0-3.21 3.21 0 0 0 0 0 3.21 0 0-3.21 0-3.21 3.21-3.21 0-3.21 3.21-6.42 3.21s-3.21 0-6.42 3.21c-3.21 0-3.21 0-6.42 0s-3.21 0-6.42 0-3.21 0-6.42 0-3.21 0-6.42-3.21c0 0-3.21 0-3.21 0s0 0-3.21-3.21c0 0 0 0-3.21 0-28.89-28.89-67.411-48.15-105.931-57.781 9.63 38.52 28.89 77.041 57.781 105.931 0 0 0 0 0 0s3.21 3.21 3.21 3.21c0 0 0 3.21 0 3.21 0 3.21 3.21 3.21 3.21 6.42s0 3.21 0 6.42 0 3.21 0 6.42 0 3.21 0 6.42 0 3.21-3.21 6.42c0 3.21-3.21 3.21-3.21 6.42 0 0 0 3.21-3.21 3.21 0 0-3.21 0-3.21 0s0 0-3.21 3.21c-77.041 51.361-166.922 70.621-260.013 54.571 0 0-3.21 0-3.21 3.21 3.21 3.21 6.42 6.42 9.63 9.63 67.411 67.411 163.712 99.511 256.803 83.461 0 0 0 0 0 0s0 0 0 0 0 0 3.21 0 6.42 0 9.63 0c0 0 3.21 0 3.21 0 3.21 0 6.42 3.21 9.63 3.21 0 0 3.21 3.21 3.21 3.21s3.21 3.21 3.21 3.21c28.89 41.73 60.991 83.461 99.511 118.771 144.451 131.611 311.373 215.072 497.555 237.542-19.26-186.182-102.721-356.313-234.332-487.925-25.68-28.89-54.571-51.361-86.671-77.041zM805.718 741.718c-25.68 25.68-60.991 41.73-99.511 41.73s-73.831-16.050-99.511-41.73c-25.68-25.68-41.73-60.991-41.73-99.511s16.050-73.831 41.73-99.511 60.991-41.73 99.511-41.73 73.831 16.050 99.511 41.73 41.73 60.991 41.73 99.511c0 35.31-12.84 70.621-41.73 99.511zM760.777 587.636c-28.89-28.89-80.251-28.89-109.141 0s-28.89 77.041 0 109.141c12.84 12.84 32.1 22.47 54.571 22.47s38.52-6.42 54.571-22.47c32.1-32.1 32.1-80.251 0-109.141zM182.972 115.762c-12.84 12.84-32.1 12.84-44.94 0l-51.361-51.361c-12.84-12.84-12.84-32.1 0-44.94 6.42-6.42 16.050-9.63 22.47-9.63s16.050 3.21 22.47 9.63l51.361 51.361c12.84 12.84 12.84 32.1 0 44.94zM182.972 266.633c-12.84 12.84-32.1 12.84-44.94 0l-128.401-128.401c-12.84-12.84-12.84-32.1 0-44.94 6.42-6.42 16.050-9.63 22.47-9.63s16.050 3.21 22.47 9.63l128.401 128.401c12.84 12.84 12.84 35.31 0 44.94zM285.693 118.972l-128.401-128.401c-12.84-12.84-12.84-32.1 0-44.94 6.42-6.42 16.050-9.63 22.47-9.63s16.050 3.21 22.47 9.63l128.401 128.401c12.84 12.84 12.84 32.1 0 44.94-9.63 12.84-32.1 12.84-44.94 0z" />
<glyph unicode="&#xe942;" glyph-name="speaker-mute" horiz-adv-x="1037" d="M913.823 444.759l113.418 113.418c12.962 12.962 12.962 32.405 0 45.367s-32.405 12.962-45.367 0l-113.418-113.418-113.418 113.418c-12.962 12.962-32.405 12.962-45.367 0s-12.962-32.405 0-45.367l113.418-113.418-113.418-113.418c-12.962-12.962-12.962-32.405 0-45.367 6.481-6.481 16.203-9.722 22.684-9.722s16.203 3.241 22.684 9.722l113.418 113.418 113.418-113.418c6.481-6.481 16.203-9.722 22.684-9.722s16.203 3.241 22.684 9.722c12.962 12.962 12.962 32.405 0 45.367l-113.418 113.418zM868.456 298.937c-19.443 0-32.405-12.962-32.405-32.405v-256c0-3.241-3.241-6.481-3.241-6.481-3.241 0-6.481-3.241-9.722 0l-424.506 249.519v385.62l424.506 256c3.241 3.241 6.481 0 9.722 0s3.241-3.241 3.241-6.481v-262.481c0-19.443 12.962-32.405 32.405-32.405s32.405 12.962 32.405 32.405v259.241c0 25.924-12.962 51.848-38.886 64.81-22.684 12.962-51.848 12.962-74.532 0l-430.987-256h-230.076c-71.291 0-126.38-58.329-126.38-126.38v-239.797c0-68.051 55.089-126.38 126.38-126.38h230.076l430.987-256c12.962-6.481 25.924-9.722 38.886-9.722s25.924 3.241 35.646 9.722c22.684 12.962 38.886 38.886 38.886 64.81v256c0 16.203-16.203 32.405-32.405 32.405zM64.81 328.101v239.797c0 32.405 25.924 61.57 61.57 61.57h207.392v-359.696h-207.392c-35.646 0-61.57 25.924-61.57 58.329z" />
<glyph unicode="&#xe943;" glyph-name="speaker" d="M809.6 403.2c-19.2 0-32-12.8-32-32s12.8-32 32-32c57.6 0 102.4 44.8 102.4 102.4s-44.8 102.4-102.4 102.4c-19.2 0-32-12.8-32-32s12.8-32 32-32c22.4 0 38.4-16 38.4-38.4s-16-38.4-38.4-38.4zM809.6 656c-19.2 0-32-12.8-32-32s12.8-32 32-32c83.2 0 150.4-67.2 150.4-150.4s-67.2-150.4-150.4-150.4c-19.2 0-32-12.8-32-32s12.8-32 32-32c118.4 0 214.4 96 214.4 214.4s-96 214.4-214.4 214.4zM822.4 185.6c-19.2 0-32-12.8-32-32v-128c0-3.2-3.2-6.4-3.2-6.4-3.2 0-3.2-3.2-6.4 0l-400 236.8v364.8l400 243.2c3.2 3.2 6.4 0 6.4 0 3.2 0 3.2-3.2 3.2-6.4v-121.6c0-19.2 12.8-32 32-32s32 12.8 32 32v121.6c0 25.6-12.8 48-35.2 60.8s-51.2 12.8-70.4 0l-409.6-243.2h-220.8c-64 0-118.4-54.4-118.4-118.4v-227.2c0-67.2 54.4-118.4 118.4-118.4h217.6l409.6-243.2c12.8-6.4 25.6-9.6 38.4-9.6s22.4 3.2 35.2 9.6c22.4 12.8 35.2 35.2 35.2 60.8v128c0 16-12.8 28.8-32 28.8zM118.4 272c-32 0-54.4 25.6-54.4 54.4v227.2c0 32 25.6 54.4 54.4 54.4h195.2v-339.2h-195.2z" />
<glyph unicode="&#xe944;" glyph-name="globe" d="M940.8 729.6c0 0 0 0 0 0-3.2 0-3.2 0 0 0-41.6 60.8-89.6 108.8-147.2 147.2-3.2 0-3.2 3.2-6.4 3.2-80 51.2-176 80-275.2 80-281.6 0-512-230.4-512-512s230.4-512 512-512c281.6 0 512 230.4 512 512 0 102.4-32 201.6-83.2 281.6zM883.2 697.6c25.6-51.2-19.2-89.6-38.4-102.4s-41.6-16-67.2-22.4c-25.6-6.4-57.6-9.6-83.2-28.8-25.6-16-38.4-35.2-38.4-57.6 0-35.2 28.8-57.6 57.6-80 44.8-35.2 41.6-41.6 35.2-48-3.2-6.4-9.6-12.8-12.8-16-6.4-9.6-16-19.2-22.4-28.8-16-25.6-12.8-48-9.6-64 0-9.6 0-16 0-22.4-3.2-6.4-6.4-9.6-19.2-16-6.4-3.2-12.8-9.6-22.4-12.8-19.2-16-28.8-32-35.2-48-3.2-9.6-9.6-16-12.8-22.4-19.2-22.4-44.8-28.8-60.8-22.4-19.2 6.4-28.8 28.8-25.6 60.8 0 6.4 0 12.8 0 19.2 3.2 41.6 6.4 83.2-22.4 128-25.6 41.6-73.6 60.8-121.6 54.4-19.2-3.2-35.2 3.2-48 12.8-9.6 9.6-16 22.4-19.2 35.2-3.2 32 16 73.6 41.6 105.6 25.6 28.8 64 32 112 16h3.2c54.4-19.2 166.4-60.8 204.8 44.8 16 38.4 6.4 67.2-6.4 83.2-16 25.6-44.8 44.8-83.2 48-12.8 3.2-19.2 6.4-19.2 6.4s0 3.2 9.6 12.8c38.4 44.8 118.4 73.6 182.4 89.6 48-35.2 89.6-76.8 121.6-124.8zM512 0c-246.4 0-448 201.6-448 448s201.6 448 448 448c60.8 0 118.4-12.8 172.8-35.2-51.2-19.2-112-44.8-150.4-89.6-6.4-9.6-28.8-32-22.4-64s32-54.4 76.8-57.6c16-3.2 32-9.6 35.2-19.2 3.2-6.4 3.2-16 0-28.8-12.8-35.2-41.6-35.2-124.8-6.4h-3.2c-73.6 28.8-137.6 16-182.4-32-32-35.2-64-92.8-60.8-150.4 3.2-32 16-60.8 41.6-83.2s60.8-32 96-25.6c22.4 3.2 44.8-6.4 60.8-28.8 19.2-25.6 16-51.2 12.8-86.4 0-6.4 0-12.8 0-19.2-3.2-57.6 22.4-105.6 67.2-121.6 12.8-6.4 25.6-6.4 38.4-6.4 35.2 0 70.4 16 96 44.8 9.6 12.8 16 25.6 22.4 35.2 6.4 12.8 9.6 19.2 16 25.6 3.2 3.2 9.6 6.4 12.8 9.6 16 9.6 35.2 22.4 44.8 51.2 6.4 19.2 3.2 35.2 3.2 48s0 19.2 0 22.4c3.2 6.4 9.6 12.8 16 19.2s12.8 16 19.2 22.4c44.8 64-16 112-51.2 137.6-9.6 6.4-25.6 19.2-28.8 25.6 3.2 0 3.2 3.2 9.6 6.4 16 9.6 38.4 16 60.8 19.2 28.8 6.4 60.8 12.8 89.6 32 22.4 16 38.4 35.2 51.2 54.4 16-48 25.6-99.2 25.6-150.4 3.2-243.2-198.4-444.8-444.8-444.8zM316.8 720c6.4 0 12.8 3.2 16 6.4 19.2 9.6 38.4 22.4 57.6 28.8 16 6.4 25.6 25.6 19.2 41.6s-25.6 25.6-41.6 19.2c-25.6-9.6-48-22.4-70.4-35.2-12.8-9.6-19.2-32-9.6-44.8 6.4-9.6 16-16 28.8-16zM275.2 723.2c-12.8 12.8-32 12.8-44.8 0-73.6-73.6-112-172.8-112-275.2 0-19.2 12.8-32 32-32s32 12.8 32 32c0 86.4 32 169.6 92.8 230.4 12.8 12.8 12.8 32 0 44.8z" />
<glyph unicode="&#xe945;" glyph-name="email" d="M1024 723.2c0 0 0 0 0 0 0 6.4 0 9.6 0 16 0 0 0 0 0 3.2-9.6 41.6-48 73.6-92.8 73.6h-838.4c-44.8 0-83.2-32-89.6-76.8 0 0 0 0 0 0-3.2-6.4-3.2-9.6-3.2-16 0 0 0 0 0 0s0-3.2 0-3.2v-531.2c0-54.4 41.6-96 96-96h832c54.4 0 96 41.6 96 96v534.4c0-3.2 0 0 0 0zM928 752c12.8 0 22.4-6.4 28.8-19.2l-396.8-384c-25.6-25.6-67.2-25.6-92.8 0l-400 384c6.4 12.8 16 19.2 28.8 19.2h832zM928 156.8h-832c-19.2 0-32 12.8-32 32v457.6l204.8-198.4-131.2-134.4c-12.8-12.8-12.8-32 0-44.8 6.4-6.4 12.8-9.6 22.4-9.6s16 3.2 22.4 9.6l131.2 134.4 105.6-102.4c25.6-22.4 57.6-38.4 89.6-38.4 35.2 0 67.2 12.8 89.6 38.4l118.4 115.2 140.8-140.8c6.4-6.4 16-9.6 22.4-9.6 9.6 0 16 3.2 22.4 9.6 12.8 12.8 12.8 32 0 44.8l-134.4 140.8 192 185.6v-457.6c0-19.2-12.8-32-32-32z" />
<glyph unicode="&#xe946;" glyph-name="face-sad" d="M310.4 480c-54.4 0-99.2 44.8-99.2 99.2s44.8 102.4 99.2 102.4 99.2-44.8 99.2-99.2-44.8-102.4-99.2-102.4zM310.4 617.6c-19.2 0-35.2-16-35.2-35.2s16-38.4 35.2-38.4 35.2 16 35.2 35.2-16 38.4-35.2 38.4zM668.8 480c-54.4 0-99.2 44.8-99.2 99.2s44.8 99.2 99.2 99.2 99.2-44.8 99.2-99.2-44.8-99.2-99.2-99.2zM668.8 617.6c-19.2 0-35.2-16-35.2-35.2s16-35.2 35.2-35.2 35.2 16 35.2 35.2c0 19.2-16 35.2-35.2 35.2zM512-64c-281.6 0-512 230.4-512 512s230.4 512 512 512c281.6 0 512-230.4 512-512s-230.4-512-512-512zM512 896c-246.4 0-448-201.6-448-448s201.6-448 448-448c246.4 0 448 201.6 448 448s-201.6 448-448 448zM307.2 176c-6.4 0-12.8 3.2-19.2 6.4-12.8 9.6-16 32-6.4 44.8 60.8 86.4 144 131.2 233.6 131.2s169.6-44.8 233.6-131.2c9.6-12.8 6.4-35.2-6.4-44.8s-35.2-6.4-44.8 6.4c-48 67.2-115.2 102.4-182.4 102.4s-131.2-38.4-182.4-105.6c-6.4-6.4-16-9.6-25.6-9.6z" />
<glyph unicode="&#xe947;" glyph-name="timeline" d="M832 512h-320c-6.4 12.8-19.2 19.2-32 25.6v89.6c19.2 6.4 35.2 25.6 41.6 44.8h214.4c19.2 0 32 12.8 32 32s-12.8 32-32 32h-230.4c-6.4 9.6-16 16-25.6 19.2v172.8c0 19.2-12.8 32-32 32s-32-12.8-32-32v-179.2c-3.2-3.2-9.6-6.4-12.8-12.8h-211.2c-19.2 0-32-12.8-32-32s12.8-32 32-32h195.2c3.2-16 12.8-28.8 28.8-38.4v-102.4c-6.4-6.4-12.8-12.8-19.2-19.2h-364.8c-19.2 0-32-12.8-32-32s12.8-32 32-32h358.4c6.4-12.8 12.8-25.6 25.6-32v-102.4c-9.6-6.4-16-16-22.4-25.6h-201.6c-19.2 0-32-12.8-32-32s12.8-32 32-32h201.6c6.4-9.6 12.8-19.2 22.4-25.6v-230.4c0-19.2 12.8-32 32-32s32 12.8 32 32v224c16 6.4 28.8 16 35.2 32h220.8c19.2 0 32 12.8 32 32s-12.8 32-32 32h-220.8c-6.4 16-19.2 25.6-35.2 32v89.6c19.2 6.4 32 22.4 38.4 38.4h313.6c19.2 0 32 12.8 32 32s-12.8 32-32 32z" />
<glyph unicode="&#xe948;" glyph-name="user" d="M518.4 345.6c-134.4 0-246.4 128-246.4 281.6s112 284.8 246.4 284.8 246.4-128 246.4-281.6c0-153.6-108.8-284.8-246.4-284.8zM518.4 848c-99.2 0-182.4-99.2-182.4-217.6 0-121.6 83.2-217.6 182.4-217.6s182.4 99.2 182.4 217.6-80 217.6-182.4 217.6zM905.6-3.2h-793.6c-51.2 0-80 22.4-92.8 41.6-22.4 32-25.6 76.8-9.6 128 41.6 131.2 147.2 224 265.6 233.6 16 3.2 32-12.8 35.2-28.8 0-16-12.8-32-28.8-35.2-92.8-9.6-179.2-83.2-214.4-188.8-9.6-28.8-9.6-54.4 3.2-67.2 6.4-9.6 22.4-16 41.6-16h796.8c19.2 0 35.2 6.4 41.6 16 9.6 16 9.6 41.6 3.2 67.2-35.2 105.6-121.6 182.4-214.4 188.8-16 3.2-32 16-28.8 35.2 3.2 16 16 32 35.2 28.8 118.4-9.6 224-102.4 268.8-233.6 16-48 12.8-96-9.6-128-19.2-16-44.8-41.6-99.2-41.6z" />
<glyph unicode="&#xe949;" glyph-name="power" d="M716.8 825.6c-16 6.4-35.2 0-41.6-16s0-35.2 16-41.6c137.6-67.2 227.2-211.2 227.2-364.8 0-224-182.4-403.2-403.2-403.2s-406.4 182.4-406.4 403.2c0 153.6 86.4 291.2 224 361.6 16 6.4 22.4 25.6 12.8 41.6-6.4 19.2-25.6 25.6-41.6 16-160-80-259.2-240-259.2-419.2 0-256 211.2-467.2 467.2-467.2 259.2 0 467.2 211.2 467.2 467.2 3.2 179.2-102.4 345.6-262.4 422.4zM512 585.6c19.2 0 32 12.8 32 32v310.4c0 19.2-12.8 32-32 32s-32-12.8-32-32v-310.4c0-16 16-32 32-32z" />
<glyph unicode="&#xe94a;" glyph-name="round-ross" d="M512 960c-281.6 0-512-230.4-512-512s230.4-512 512-512 512 230.4 512 512-230.4 512-512 512zM512 0c-246.4 0-448 201.6-448 448s201.6 448 448 448 448-201.6 448-448-201.6-448-448-448zM684.8 611.2c-12.8 12.8-32 12.8-44.8 0l-134.4-134.4-134.4 134.4c-12.8 12.8-32 12.8-44.8 0s-12.8-32 0-44.8l134.4-134.4-134.4-134.4c-12.8-12.8-12.8-32 0-44.8 6.4-6.4 16-9.6 22.4-9.6s16 3.2 22.4 9.6l134.4 134.4 134.4-134.4c6.4-6.4 16-9.6 22.4-9.6s16 3.2 22.4 9.6c12.8 12.8 12.8 32 0 44.8l-134.4 134.4 134.4 134.4c12.8 12.8 12.8 32 0 44.8z" />
<glyph unicode="&#xe94b;" glyph-name="video-cam" d="M995.2 563.2c-16 9.6-38.4 9.6-54.4 0l-179.2-89.6v22.4c0 57.6-48 102.4-102.4 102.4v0c28.8 32 48 76.8 48 124.8-3.2 105.6-89.6 188.8-192 188.8-76.8 0-144-48-172.8-115.2-25.6 25.6-64 41.6-102.4 41.6-83.2 0-150.4-67.2-150.4-150.4 0-32 9.6-60.8 28.8-86.4h-16c-54.4 0-102.4-48-102.4-105.6v-400c0-57.6 48-102.4 102.4-102.4h553.6c57.6 0 102.4 48 102.4 102.4v25.6l179.2-89.6c9.6-6.4 19.2-9.6 28.8-9.6s19.2 3.2 28.8 6.4c19.2 9.6 28.8 28.8 28.8 48v438.4c0 19.2-9.6 35.2-28.8 48zM515.2 848c67.2 0 124.8-54.4 124.8-124.8s-54.4-124.8-124.8-124.8c-70.4 0-121.6 57.6-121.6 124.8s54.4 124.8 121.6 124.8zM374.4 598.4h-9.6c3.2 3.2 3.2 3.2 3.2 6.4 3.2 0 6.4 0 6.4-6.4zM153.6 688c0 48 38.4 86.4 86.4 86.4s86.4-38.4 86.4-86.4-38.4-86.4-86.4-86.4-86.4 38.4-86.4 86.4zM697.6 99.2c0-22.4-19.2-38.4-38.4-38.4h-556.8c-22.4 0-38.4 19.2-38.4 38.4v396.8c0 22.4 19.2 38.4 38.4 38.4h553.6c22.4 0 38.4-19.2 38.4-38.4l3.2-396.8zM960 96l-198.4 99.2v204.8l198.4 99.2v-403.2z" />
<glyph unicode="&#xe94c;" glyph-name="award" d="M1008 745.6c-22.4 38.4-57.6 57.6-102.4 57.6h-67.2v76.8c0 19.2-12.8 32-32 32h-595.2c-19.2 0-32-12.8-32-32v-76.8h-60.8c-44.8 0-80-22.4-102.4-57.6s-19.2-80 3.2-118.4l67.2-108.8c6.4-9.6 16-16 28.8-16 6.4 0 12.8 0 16 3.2 16 9.6 19.2 28.8 9.6 44.8l-70.4 108.8c-9.6 19.2-12.8 38.4 0 54.4 9.6 19.2 28.8 28.8 48 28.8h60.8v-198.4c0-169.6 131.2-313.6 297.6-329.6v-67.2h-172.8c-48 0-83.2-38.4-83.2-83.2s38.4-83.2 83.2-83.2h406.4c48 0 83.2 38.4 83.2 83.2s-38.4 83.2-83.2 83.2h-169.6v67.2c166.4 16 297.6 156.8 297.6 329.6v198.4h67.2c22.4 0 38.4-9.6 48-28.8s9.6-38.4 0-54.4l-67.2-108.8c-9.6-16-3.2-35.2 9.6-44.8 6.4-3.2 9.6-3.2 16-3.2 9.6 0 22.4 6.4 28.8 16l67.2 108.8c22.4 35.2 22.4 76.8 0 118.4zM732.8 64c0-12.8-9.6-22.4-22.4-22.4h-403.2c-12.8 0-22.4 9.6-22.4 22.4s9.6 22.4 22.4 22.4h406.4c9.6 0 19.2-12.8 19.2-22.4zM777.6 544c0-147.2-121.6-265.6-265.6-265.6s-265.6 121.6-265.6 265.6v307.2h531.2v-307.2z" />
<glyph unicode="&#xe94d;" glyph-name="bell" horiz-adv-x="826" d="M809.6 217.6c-96 150.4-105.6 307.2-105.6 307.2 0 124.8-92.8 227.2-214.4 259.2 16 19.2 28.8 44.8 28.8 70.4 0 60.8-44.8 105.6-102.4 105.6s-105.6-41.6-105.6-99.2c0-25.6 9.6-51.2 25.6-67.2-128-28.8-224-134.4-224-262.4 0 0 3.2-147.2-96-307.2-19.2-32-19.2-64-3.2-92.8s44.8-44.8 80-44.8h147.2c12.8-86.4 86.4-150.4 172.8-150.4s160 64 176 147.2h144c35.2 0 64 16 80 44.8s12.8 60.8-3.2 89.6zM412.8 899.2c22.4 0 38.4-16 38.4-38.4s-16-38.4-38.4-38.4-38.4 16-38.4 38.4 16 38.4 38.4 38.4zM412.8 0c-51.2 0-96 35.2-108.8 83.2h217.6c-12.8-48-57.6-83.2-108.8-83.2zM755.2 160c-3.2-6.4-12.8-12.8-25.6-12.8h-640c-12.8 0-19.2 3.2-25.6 12.8 0 6.4 0 16 3.2 25.6 112 176 105.6 336 105.6 342.4 0 118.4 105.6 208 233.6 208s233.6-92.8 233.6-208c0-6.4 9.6-176 115.2-339.2 6.4-12.8 6.4-22.4 0-28.8z" />
<glyph unicode="&#xe94e;" glyph-name="down-big" d="M1014.4 710.4c-12.8 12.8-32 12.8-44.8 0l-457.6-457.6-457.6 457.6c-12.8 12.8-32 12.8-44.8 0s-12.8-32 0-44.8l480-480c6.4-6.4 12.8-9.6 22.4-9.6s16 3.2 22.4 9.6l480 480c12.8 12.8 12.8 32 0 44.8z" />
<glyph unicode="&#xe94f;" glyph-name="next-big" horiz-adv-x="544" d="M467.2 448l-457.6 457.6c-12.8 12.8-12.8 32 0 44.8s32 12.8 44.8 0l480-480c12.8-12.8 12.8-32 0-44.8l-480-480c-6.4-6.4-12.8-9.6-22.4-9.6s-16 3.2-22.4 9.6c-12.8 12.8-12.8 32 0 44.8l457.6 457.6z" />
<glyph unicode="&#xe950;" glyph-name="previous-big" horiz-adv-x="544" d="M76.8 448l457.6 457.6c12.8 12.8 12.8 32 0 44.8s-32 12.8-44.8 0l-480-480c-12.8-12.8-12.8-32 0-44.8l480-480c6.4-6.4 16-9.6 22.4-9.6 9.6 0 16 3.2 22.4 9.6 12.8 12.8 12.8 32 0 44.8l-457.6 457.6z" />
<glyph unicode="&#xe951;" glyph-name="up-big" d="M1014.4 185.6c-12.8-12.8-32-12.8-44.8 0l-457.6 457.6-457.6-457.6c-12.8-12.8-32-12.8-44.8 0s-12.8 32 0 44.8l480 480c6.4 6.4 12.8 9.6 22.4 9.6s16-3.2 22.4-9.6l480-480c12.8-12.8 12.8-32 0-44.8z" />
<glyph unicode="&#xe952;" glyph-name="bookmark" horiz-adv-x="845" d="M742.4 960h-640c-57.6 0-102.4-44.8-102.4-102.4v-854.4c0-19.2 6.4-35.2 22.4-48 22.4-22.4 60.8-25.6 86.4-6.4l313.6 233.6 313.6-233.6c12.8-9.6 25.6-12.8 41.6-12.8 38.4 0 67.2 28.8 67.2 67.2v854.4c0 57.6-44.8 102.4-102.4 102.4zM780.8 3.2c0-3.2-3.2-3.2-3.2-3.2l-336 249.6c-6.4 3.2-12.8 6.4-19.2 6.4s-12.8-3.2-19.2-6.4l-336-249.6-3.2 3.2v854.4c0 22.4 16 38.4 38.4 38.4h640c22.4 0 38.4-16 38.4-38.4v-854.4z" />
<glyph unicode="&#xe953;" glyph-name="bulb" horiz-adv-x="688" d="M576 873.6c-73.6 64-172.8 96-268.8 86.4-153.6-22.4-291.2-160-307.2-313.6-9.6-102.4 25.6-204.8 99.2-278.4 51.2-48 80-112 80-179.2 0-19.2 12.8-32 32-32h268.8c19.2 0 32 12.8 32 32s-12.8 32-32 32h-240c-6.4 73.6-41.6 140.8-92.8 195.2-60.8 57.6-89.6 140.8-83.2 224 9.6 121.6 128 240 246.4 252.8 80 9.6 160-16 220.8-70.4s92.8-131.2 92.8-211.2c0-76.8-32-150.4-86.4-204.8-41.6-38.4-70.4-86.4-83.2-137.6-3.2-16 6.4-35.2 22.4-38.4s35.2 6.4 38.4 22.4c9.6 38.4 32 76.8 64 108.8 70.4 67.2 108.8 153.6 108.8 249.6 3.2 102.4-38.4 195.2-112 262.4zM480 108.8h-268.8c-19.2 0-32-12.8-32-32s12.8-32 32-32h268.8c19.2 0 32 12.8 32 32s-16 32-32 32zM428.8 0h-169.6c-19.2 0-32-12.8-32-32s12.8-32 32-32h169.6c19.2 0 32 12.8 32 32s-12.8 32-32 32z" />
<glyph unicode="&#xe954;" glyph-name="calendar" d="M934.4 822.4h-89.6v9.6c0 51.2-41.6 96-96 96-51.2 0-96-41.6-96-96v-12.8h-284.8v12.8c0 51.2-41.6 96-96 96-51.2 0-96-41.6-96-96v-12.8h-89.6c-48 3.2-86.4-35.2-86.4-83.2v-694.4c0-48 38.4-86.4 86.4-86.4h851.2c48 0 86.4 38.4 86.4 86.4v694.4c-3.2 48-41.6 86.4-89.6 86.4zM720 832c0 16 12.8 32 32 32 16 0 32-12.8 32-32v-86.4c0-16-12.8-32-32-32-16 0-32 12.8-32 32v86.4zM246.4 832c0 16 12.8 32 32 32 16 0 32-12.8 32-32v-86.4c0-16-12.8-32-32-32-16 0-32 12.8-32 32v86.4zM86.4 758.4h99.2v-12.8c0-51.2 41.6-96 96-96 51.2 0 96 41.6 96 96v12.8h284.8v-12.8c0-51.2 41.6-96 96-96 51.2 0 96 41.6 96 96v12.8h89.6c6.4 0 16-9.6 16-22.4v-144h-896v144c0 12.8 9.6 22.4 22.4 22.4zM934.4 22.4h-848c-12.8 0-22.4 9.6-22.4 22.4v483.2h892.8v-489.6c0-6.4-9.6-16-22.4-16zM745.6 460.8h-448c-19.2 0-32-12.8-32-32v-300.8c0-19.2 12.8-32 32-32h300.8c19.2 0 32 12.8 32 32v118.4h118.4c19.2 0 32 12.8 32 32v150.4c-3.2 19.2-19.2 32-35.2 32zM480 400h86.4v-86.4h-86.4v86.4zM329.6 400h86.4v-86.4h-86.4v86.4zM416 163.2h-86.4v86.4h86.4v-86.4zM563.2 163.2h-83.2v86.4h86.4v-86.4zM713.6 313.6h-86.4v86.4h86.4v-86.4z" />
<glyph unicode="&#xe955;" glyph-name="camera" d="M512 169.6c-121.6 0-220.8 99.2-220.8 220.8s99.2 220.8 220.8 220.8 220.8-99.2 220.8-220.8-99.2-220.8-220.8-220.8zM512 550.4c-86.4 0-156.8-70.4-156.8-156.8s70.4-156.8 156.8-156.8 156.8 70.4 156.8 156.8-70.4 156.8-156.8 156.8zM918.4 9.6h-812.8c-57.6 0-105.6 44.8-105.6 102.4v560c0 57.6 48 105.6 105.6 105.6h192c16 57.6 67.2 102.4 131.2 102.4h163.2c60.8 0 115.2-44.8 128-102.4h198.4c57.6 0 105.6-48 105.6-105.6v-560c0-57.6-48-102.4-105.6-102.4zM105.6 716.8c-25.6 0-44.8-19.2-44.8-44.8v-560c0-25.6 19.2-44.8 44.8-44.8h809.6c25.6 0 44.8 19.2 44.8 44.8v560c0 25.6-19.2 44.8-44.8 44.8h-224c-19.2 0-32 12.8-32 32 0 41.6-32 70.4-70.4 70.4h-163.2c-38.4 0-70.4-32-70.4-70.4 0-19.2-12.8-32-32-32 0 0-217.6 0-217.6 0z" />
<glyph unicode="&#xe956;" glyph-name="chat-double" d="M233.6 569.6c-32 6.4-60.8-22.4-54.4-54.4 3.2-16 16-28.8 32-32 32-6.4 60.8 22.4 54.4 54.4-3.2 16-16 28.8-32 32zM393.6 569.6c-32 6.4-60.8-22.4-54.4-54.4 3.2-16 16-28.8 32-32 32-6.4 60.8 22.4 54.4 54.4-6.4 16-19.2 28.8-32 32zM550.4 569.6c-32 6.4-60.8-22.4-54.4-54.4 3.2-16 16-28.8 32-32 32-6.4 60.8 22.4 54.4 54.4-6.4 16-19.2 28.8-32 32zM1024 384c0 118.4-108.8 220.8-252.8 243.2-48 128-198.4 220.8-377.6 220.8-217.6 0-393.6-137.6-393.6-307.2 0-102.4 60.8-195.2 166.4-252.8l-44.8-92.8c-6.4-12.8-3.2-25.6 6.4-35.2 6.4-6.4 12.8-9.6 22.4-9.6 3.2 0 9.6 0 12.8 3.2l176 80c19.2-3.2 38.4-3.2 54.4-3.2 22.4 0 41.6 3.2 60.8 3.2 57.6-64 153.6-102.4 252.8-102.4 16 0 28.8 0 44.8 3.2l102.4-76.8c6.4-3.2 12.8-6.4 19.2-6.4s12.8 3.2 16 3.2c9.6 6.4 16 19.2 12.8 32l-19.2 86.4c89.6 51.2 140.8 128 140.8 211.2zM336 297.6c-6.4 0-12.8 0-16-3.2l-105.6-48 19.2 44.8c3.2 6.4 3.2 16 0 22.4s-9.6 12.8-16 16c-99.2 44.8-156.8 124.8-156.8 208 0 134.4 147.2 246.4 332.8 246.4 160 0 294.4-86.4 326.4-198.4v0c3.2-16 6.4-32 6.4-48 0-134.4-147.2-246.4-332.8-246.4-16 3.2-35.2 3.2-57.6 6.4zM838.4 224c-12.8-6.4-19.2-19.2-19.2-35.2l6.4-28.8-48 35.2c-6.4 6.4-16 6.4-22.4 6.4-16-3.2-32-3.2-48-3.2-67.2 0-131.2 19.2-179.2 54.4 150.4 44.8 256 156.8 256 288 0 6.4 0 12.8 0 19.2 102.4-25.6 176-96 176-176 3.2-67.2-44.8-128-121.6-160z" />
<glyph unicode="&#xe957;" glyph-name="chat-single-line" d="M835.2-9.6c-3.2 0-9.6 0-12.8 3.2l-236.8 108.8c-25.6-3.2-51.2-6.4-73.6-6.4-281.6 0-512 179.2-512 400s230.4 400 512 400 512-179.2 512-400c0-134.4-83.2-256-220.8-329.6l60.8-131.2c6.4-12.8 3.2-25.6-6.4-35.2-6.4-6.4-12.8-9.6-22.4-9.6zM592 166.4c3.2 0 9.6 0 12.8-3.2l163.2-76.8-38.4 80c-3.2 6.4-3.2 16 0 25.6 3.2 6.4 9.6 16 16 19.2 134.4 60.8 214.4 169.6 214.4 284.8 0 185.6-201.6 336-448 336s-448-150.4-448-336c0-185.6 201.6-336 448-336 22.4 0 48 3.2 76.8 6.4 0 0 0 0 3.2 0z" />
<glyph unicode="&#xe958;" glyph-name="circle-tick" d="M457.6 300.8v0c-9.6 0-19.2 6.4-25.6 12.8l-108.8 140.8c-9.6 12.8-9.6 35.2 6.4 44.8 12.8 9.6 35.2 9.6 44.8-6.4l86.4-112 236.8 265.6c12.8 12.8 32 16 44.8 3.2s16-32 3.2-44.8l-262.4-294.4c-6.4-6.4-16-9.6-25.6-9.6zM512-64c-281.6 0-512 230.4-512 512s230.4 512 512 512 512-230.4 512-512-230.4-512-512-512zM512 896c-246.4 0-448-201.6-448-448s201.6-448 448-448 448 201.6 448 448-201.6 448-448 448z" />
<glyph unicode="&#xe959;" glyph-name="clip" horiz-adv-x="1037" d="M317.57-64c-3.241 0-6.481 0-9.722 0-81.013 3.241-162.025 35.646-217.114 93.975-58.329 55.089-90.734 129.62-90.734 210.633s32.405 155.544 87.494 213.873l440.709 440.709c87.494 87.494 233.316 87.494 320.81 0s87.494-233.316 0-320.81l-418.025-418.025c-55.089-55.089-149.063-55.089-204.152 0s-55.089 149.063 0 204.152l366.177 366.177c12.962 12.962 32.405 12.962 45.367 0s12.962-32.405 0-45.367l-366.177-366.177c-32.405-32.405-32.405-81.013 0-113.418s81.013-32.405 113.418 0l418.025 418.025c61.57 61.57 61.57 165.266 0 230.076-64.81 64.81-165.266 61.57-230.076 0l-440.709-440.709c-42.127-45.367-68.051-103.696-68.051-168.506s25.924-123.139 68.051-168.506c45.367-45.367 106.937-71.291 174.987-74.532s126.38 19.443 171.747 64.81l502.278 502.278c12.962 12.962 32.405 12.962 45.367 0s12.962-32.405 0-45.367l-502.278-502.278c-55.089-51.848-126.38-81.013-207.392-81.013z" />
<glyph unicode="&#xe95a;" glyph-name="clock" d="M512-64c-281.6 0-512 230.4-512 512s230.4 512 512 512 512-230.4 512-512-230.4-512-512-512zM512 896c-246.4 0-448-201.6-448-448s201.6-448 448-448 448 201.6 448 448-201.6 448-448 448zM761.6 416h-249.6c-19.2 0-32 12.8-32 32v291.2c0 19.2 12.8 32 32 32s32-12.8 32-32v-259.2h217.6c19.2 0 32-12.8 32-32s-12.8-32-32-32z" />
<glyph unicode="&#xe95b;" glyph-name="crop" horiz-adv-x="1037" d="M1004.557 665.114c19.443 0 32.405 12.962 32.405 32.405v230.076c0 19.443-12.962 32.405-32.405 32.405h-230.076c-19.443 0-32.405-12.962-32.405-32.405v-84.253h-447.19v84.253c0 19.443-12.962 32.405-32.405 32.405h-230.076c-19.443 0-32.405-12.962-32.405-32.405v-230.076c0-19.443 12.962-32.405 32.405-32.405h84.253v-434.228h-84.253c-19.443 0-32.405-12.962-32.405-32.405v-230.076c0-19.443 12.962-32.405 32.405-32.405h230.076c19.443 0 32.405 12.962 32.405 32.405v71.291h447.19v-71.291c0-19.443 12.962-32.405 32.405-32.405h230.076c19.443 0 32.405 12.962 32.405 32.405v230.076c0 19.443-12.962 32.405-32.405 32.405h-84.253v434.228h84.253zM806.886 895.19h165.266v-165.266h-165.266v165.266zM64.81 895.19h165.266v-165.266h-165.266v165.266zM230.076 0.81h-165.266v165.266h165.266v-165.266zM972.152 0.81h-165.266v165.266h165.266v-165.266zM855.494 230.886h-84.253c-19.443 0-32.405-12.962-32.405-32.405v-93.975h-443.949v93.975c0 19.443-12.962 32.405-32.405 32.405h-81.013v434.228h84.253c19.443 0 32.405 12.962 32.405 32.405v81.013h447.19v-84.253c0-19.443 12.962-32.405 32.405-32.405h84.253v-430.987h-6.481z" />
<glyph unicode="&#xe95c;" glyph-name="cross-big" d="M556.8 448l457.6 457.6c12.8 12.8 12.8 32 0 44.8s-32 12.8-44.8 0l-457.6-457.6-457.6 457.6c-12.8 12.8-32 12.8-44.8 0s-12.8-32 0-44.8l457.6-457.6-457.6-457.6c-12.8-12.8-12.8-32 0-44.8 6.4-6.4 12.8-9.6 22.4-9.6s16 3.2 22.4 9.6l457.6 457.6 457.6-457.6c6.4-6.4 16-9.6 22.4-9.6s16 3.2 22.4 9.6c12.8 12.8 12.8 32 0 44.8l-457.6 457.6z" />
<glyph unicode="&#xe95d;" glyph-name="dislike-fill" d="M838.4 896h115.2c38.4 0 70.4-32 70.4-64v-345.6c0-38.4-32-64-64-64h-115.2c-38.4 0-64 32-64 64v345.6c-6.4 32 25.6 64 57.6 64zM713.6 803.2c0 28.8-16 51.2-44.8 57.6-44.8 16-112 35.2-156.8 35.2h-342.4c-35.2 0-67.2-32-67.2-67.2v0c0-38.4 32-67.2 67.2-67.2h-32c-38.4 0-67.2-32-67.2-67.2v0c0-38.4 32-67.2 67.2-67.2h-41.6c-38.4 0-67.2-32-67.2-67.2v0c0-38.4 32-67.2 67.2-67.2h-28.8c-38.4 0-67.2-32-67.2-67.2v0c0-38.4 32-67.2 67.2-67.2h316.8c-38.4-60.8-22.4-150.4-19.2-224s19.2-115.2 86.4-115.2 60.8 67.2 60.8 67.2c12.8 227.2 121.6 326.4 172.8 364.8 16 9.6 28.8 32 28.8 51.2v300.8z" />
<glyph unicode="&#xe95e;" glyph-name="download" d="M761.6 624c-38.4 105.6-140.8 176-249.6 176-140.8 0-256-108.8-268.8-246.4-6.4 0-12.8 0-19.2 0-121.6 0-224-99.2-224-224s102.4-227.2 227.2-227.2h163.2c19.2 0 32 12.8 32 32s-12.8 32-32 32h-163.2c-89.6 0-163.2 73.6-163.2 163.2s73.6 163.2 163.2 163.2c12.8 0 28.8-3.2 41.6-6.4 9.6-3.2 19.2 0 28.8 6.4s12.8 16 12.8 25.6c0 3.2 0 9.6 0 12.8-3.2 112 89.6 204.8 201.6 204.8 92.8 0 172.8-64 198.4-150.4 3.2-16 19.2-25.6 35.2-22.4 6.4 0 12.8 0 19.2 0 108.8 0 198.4-89.6 198.4-198.4s-89.6-198.4-198.4-198.4h-108.8c-19.2 0-32-12.8-32-32s12.8-32 32-32h108.8c144 0 262.4 118.4 262.4 262.4-6.4 144-121.6 259.2-265.6 259.2zM614.4 310.4c-12.8 12.8-32 12.8-44.8 0l-19.2-19.2v176c0 19.2-12.8 32-32 32s-32-12.8-32-32v-176l-19.2 19.2c-12.8 12.8-32 12.8-44.8 0s-12.8-32 0-44.8l73.6-73.6c6.4-6.4 16-9.6 22.4-9.6s16 3.2 22.4 9.6l73.6 73.6c12.8 16 12.8 32 0 44.8z" />
<glyph unicode="&#xe95f;" glyph-name="edit-circle" d="M668.8 707.2c-19.2 19.2-54.4 19.2-73.6 0l-240-240c0 0-6.4-9.6-6.4-12.8l-83.2-230.4c-3.2-12.8 0-25.6 6.4-32s12.8-9.6 22.4-9.6c3.2 0 6.4 0 9.6 3.2l230.4 83.2c0 0 12.8 6.4 16 6.4l240 240c19.2 19.2 19.2 54.4 0 73.6l-121.6 118.4zM390.4 384c19.2-22.4 44.8-48 73.6-73.6l-115.2-41.6 41.6 115.2zM524.8 342.4c-38.4 32-80 76.8-102.4 102.4l211.2 211.2 102.4-102.4-211.2-211.2zM512 960c-281.6 0-512-230.4-512-512s230.4-512 512-512 512 230.4 512 512-230.4 512-512 512zM512 0c-246.4 0-448 201.6-448 448s201.6 448 448 448 448-201.6 448-448-201.6-448-448-448z" />
<glyph unicode="&#xe960;" glyph-name="eye" d="M1020.8 467.2c-92.8 192-291.2 316.8-508.8 316.8s-416-124.8-508.8-316.8c-3.2-9.6-3.2-19.2 0-28.8 92.8-192 291.2-316.8 508.8-316.8s416 124.8 508.8 316.8c3.2 9.6 3.2 19.2 0 28.8zM512 185.6c-185.6 0-358.4 105.6-444.8 265.6 86.4 163.2 259.2 268.8 444.8 268.8s358.4-105.6 444.8-268.8c-86.4-160-259.2-265.6-444.8-265.6zM512 636.8c-102.4 0-182.4-83.2-182.4-182.4s83.2-182.4 182.4-182.4c102.4 0 182.4 83.2 182.4 182.4s-80 182.4-182.4 182.4zM512 332.8c-67.2 0-118.4 54.4-118.4 118.4s54.4 118.4 118.4 118.4 118.4-54.4 118.4-118.4-51.2-118.4-118.4-118.4z" />
<glyph unicode="&#xe961;" glyph-name="face-laugh" d="M512-64c-281.6 0-512 230.4-512 512s230.4 512 512 512 512-230.4 512-512-230.4-512-512-512zM512 899.2c-249.6 0-451.2-201.6-451.2-451.2s201.6-451.2 451.2-451.2 451.2 201.6 451.2 451.2-201.6 451.2-451.2 451.2zM339.2 486.4c-51.2 0-96 44.8-96 96s44.8 96 96 96 96-44.8 96-96c0-54.4-44.8-96-96-96zM339.2 614.4c-19.2 0-35.2-16-35.2-35.2s16-35.2 35.2-35.2 35.2 16 35.2 35.2-16 35.2-35.2 35.2zM681.6 486.4c-51.2 0-96 44.8-96 96s44.8 96 96 96c51.2 0 96-44.8 96-96 0-54.4-41.6-96-96-96zM681.6 614.4c-19.2 0-35.2-16-35.2-35.2s16-35.2 35.2-35.2c19.2 0 35.2 16 35.2 35.2s-16 35.2-35.2 35.2zM508.8 112c-137.6 0-249.6 112-249.6 249.6 0 19.2 12.8 32 32 32h438.4c19.2 0 32-12.8 32-32-3.2-137.6-115.2-249.6-252.8-249.6zM323.2 332.8c16-89.6 92.8-153.6 185.6-153.6s169.6 67.2 185.6 153.6h-371.2z" />
<glyph unicode="&#xe962;" glyph-name="face-smile" d="M512-64c-281.6 0-512 230.4-512 512s230.4 512 512 512 512-230.4 512-512-230.4-512-512-512zM512 899.2c-249.6 0-451.2-201.6-451.2-451.2s201.6-451.2 451.2-451.2 451.2 201.6 451.2 451.2-201.6 451.2-451.2 451.2zM339.2 486.4c-51.2 0-96 44.8-96 96s44.8 96 96 96 96-44.8 96-96c0-54.4-44.8-96-96-96zM339.2 614.4c-19.2 0-35.2-16-35.2-35.2s16-35.2 35.2-35.2 35.2 16 35.2 35.2-16 35.2-35.2 35.2zM681.6 486.4c-51.2 0-96 44.8-96 96s44.8 96 96 96c51.2 0 96-44.8 96-96 0-54.4-41.6-96-96-96zM681.6 614.4c-19.2 0-35.2-16-35.2-35.2s16-35.2 35.2-35.2c19.2 0 35.2 16 35.2 35.2s-16 35.2-35.2 35.2zM508.8 147.2c-83.2 0-166.4 48-230.4 134.4-9.6 12.8-6.4 35.2 6.4 44.8s35.2 6.4 44.8-6.4c51.2-70.4 115.2-108.8 179.2-108.8s131.2 41.6 179.2 108.8c9.6 12.8 32 16 44.8 6.4s16-32 6.4-44.8c-64-86.4-147.2-134.4-230.4-134.4z" />
<glyph unicode="&#xe963;" glyph-name="feed" d="M960 896h-896c-35.2 0-64-28.8-64-64v-771.2c0-35.2 28.8-64 64-64h896c35.2 0 64 28.8 64 64v771.2c0 35.2-28.8 64-64 64zM384 432h256v-374.4h-256v374.4zM640 496h-256v336h256v-336zM64 832h256v-771.2h-256v771.2zM960 60.8h-256v771.2h256v-771.2zM960 28.8v0z" />
<glyph unicode="&#xe964;" glyph-name="file" horiz-adv-x="848" d="M758.4 960h-444.8c-6.4 0-12.8 0-16-3.2-6.4 0-9.6 0-12.8-3.2 0 0-3.2 0-6.4 0-9.6-6.4-22.4-12.8-28.8-19.2l-220.8-217.6c-19.2-16-28.8-41.6-28.8-67.2v-620.8c0-51.2 41.6-92.8 92.8-92.8h662.4c51.2 0 92.8 41.6 92.8 92.8v838.4c3.2 51.2-38.4 92.8-89.6 92.8zM288 883.2v-204.8h-208l208 204.8zM787.2 28.8c0-16-12.8-28.8-28.8-28.8h-665.6c-16 0-28.8 12.8-28.8 28.8v585.6h256c19.2 0 32 12.8 32 32v249.6h403.2c16 0 28.8-12.8 28.8-28.8v-838.4h3.2zM684.8 540.8h-486.4c-19.2 0-32-12.8-32-32s12.8-32 32-32h486.4c19.2 0 32 12.8 32 32s-16 32-32 32zM684.8 387.2h-486.4c-19.2 0-32-12.8-32-32s12.8-32 32-32h486.4c19.2 0 32 12.8 32 32s-16 32-32 32zM684.8 246.4h-486.4c-19.2 0-32-12.8-32-32s12.8-32 32-32h486.4c19.2 0 32 12.8 32 32s-16 32-32 32z" />
<glyph unicode="&#xe965;" glyph-name="files" horiz-adv-x="880" d="M796.8 803.2h-70.4v73.6c-3.2 44.8-41.6 83.2-86.4 83.2h-371.2c-22.4 0-44.8-9.6-57.6-22.4l-185.6-182.4c-16-16-25.6-38.4-25.6-60.8v-518.4c0-44.8 38.4-83.2 83.2-83.2h70.4v-70.4c3.2-48 38.4-86.4 86.4-86.4h556.8c44.8 0 83.2 38.4 83.2 83.2v700.8c0 48-38.4 83.2-83.2 83.2zM243.2 876.8v-153.6h-160l137.6 134.4 22.4 19.2zM64 176v483.2h211.2c19.2 0 32 12.8 32 32v204.8h332.8c9.6 0 19.2-9.6 19.2-19.2v-697.6c0-9.6-9.6-19.2-19.2-19.2h-556.8c-9.6-3.2-19.2 3.2-19.2 16zM816 19.2c0-9.6-9.6-19.2-19.2-19.2h-556.8c-9.6 0-19.2 9.6-19.2 19.2v70.4h419.2c44.8 0 83.2 38.4 83.2 83.2v566.4h70.4c9.6 0 19.2-9.6 19.2-19.2l3.2-700.8zM169.6 544h406.4c19.2 0 32 12.8 32 32s-12.8 32-32 32h-406.4c-19.2 0-32-12.8-32-32s16-32 32-32zM169.6 416h406.4c19.2 0 32 12.8 32 32s-12.8 32-32 32h-406.4c-19.2 0-32-12.8-32-32s16-32 32-32zM579.2 297.6c19.2 0 32 12.8 32 32s-12.8 32-32 32h-409.6c-19.2 0-32-12.8-32-32s12.8-32 32-32h409.6z" />
<glyph unicode="&#xe966;" glyph-name="folder" d="M812.8 48c-3.2 0-3.2 0-3.2 0h-723.2c-48 0-86.4 38.4-86.4 86.4v627.2c0 48 38.4 86.4 86.4 86.4h233.6c48 0 86.4-38.4 86.4-86.4v-22.4h403.2c48 0 86.4-38.4 86.4-86.4v-128h38.4c28.8 0 57.6-16 73.6-38.4 16-25.6 19.2-54.4 6.4-83.2l-128-304c-16-41.6-51.2-51.2-73.6-51.2zM73.6 115.2c3.2-3.2 6.4-3.2 12.8-3.2h726.4c3.2 0 16 0 19.2 12.8l124.8 304c3.2 9.6 0 19.2-3.2 22.4s-9.6 9.6-19.2 9.6h-704c-9.6 0-19.2-6.4-22.4-16l-134.4-329.6zM86.4 784c-12.8 0-22.4-9.6-22.4-22.4v-499.2l89.6 211.2c12.8 32 44.8 54.4 80 54.4h598.4v128c0 12.8-9.6 22.4-22.4 22.4h-435.2c-19.2 0-32 12.8-32 32v51.2c0 12.8-9.6 22.4-22.4 22.4h-233.6z" />
<glyph unicode="&#xe967;" glyph-name="follower" horiz-adv-x="1037" d="M524.962 386.43c136.101 0 249.519 129.62 249.519 285.165s-110.177 288.405-249.519 288.405-249.519-129.62-249.519-285.165 113.418-288.405 249.519-288.405zM524.962 895.19c100.456 0 184.709-100.456 184.709-220.354s-84.253-220.354-184.709-220.354-184.709 100.456-184.709 220.354c0 119.899 84.253 220.354 184.709 220.354zM281.924 438.278c-119.899-9.722-226.835-103.696-272.203-236.557-16.203-48.608-12.962-97.215 9.722-129.62 12.962-19.443 42.127-42.127 93.975-42.127h100.456c19.443 0 32.405 12.962 32.405 32.405s-12.962 32.405-32.405 32.405h-97.215c-19.443 0-35.646 6.481-42.127 16.203-9.722 16.203-9.722 42.127-3.241 68.051 35.646 106.937 123.139 184.709 217.114 191.19 19.443 3.241 32.405 16.203 29.165 35.646 0 19.443-16.203 32.405-35.646 32.405zM1027.241 201.722c-45.367 132.861-152.304 223.595-272.203 236.557-16.203 3.241-32.405-12.962-35.646-29.165 0-16.203 12.962-32.405 29.165-35.646 93.975-9.722 181.468-84.253 217.114-191.19 9.722-29.165 9.722-55.089-3.241-68.051-6.481-9.722-22.684-16.203-42.127-16.203h-100.456c-19.443 0-32.405-12.962-32.405-32.405s12.962-32.405 32.405-32.405h100.456c51.848 0 81.013 22.684 93.975 42.127 25.924 29.165 29.165 77.772 12.962 126.38zM349.975 49.418c3.241-3.241 3.241-6.481 6.481-9.722l93.975-93.975c12.962-12.962 32.405-12.962 45.367 0s12.962 32.405 0 45.367l-38.886 38.886h213.873c19.443 0 32.405 12.962 32.405 32.405s-12.962 32.405-32.405 32.405h-213.873l38.886 38.886c12.962 12.962 12.962 32.405 0 45.367-6.481 6.481-16.203 9.722-22.684 9.722s-16.203-3.241-22.684-9.722l-93.975-93.975c-3.241-3.241-6.481-6.481-6.481-9.722-3.241-9.722-3.241-16.203 0-25.924z" />
<glyph unicode="&#xe968;" glyph-name="following" horiz-adv-x="1037" d="M524.962 386.43c136.101 0 249.519 129.62 249.519 285.165s-110.177 288.405-249.519 288.405-249.519-129.62-249.519-285.165 113.418-288.405 249.519-288.405zM524.962 895.19c100.456 0 184.709-100.456 184.709-220.354s-84.253-220.354-184.709-220.354-184.709 100.456-184.709 220.354c0 119.899 84.253 220.354 184.709 220.354zM281.924 438.278c-119.899-9.722-226.835-103.696-272.203-236.557-16.203-48.608-12.962-97.215 9.722-129.62 12.962-19.443 42.127-42.127 93.975-42.127h100.456c19.443 0 32.405 12.962 32.405 32.405s-12.962 32.405-32.405 32.405h-97.215c-19.443 0-35.646 6.481-42.127 16.203-9.722 16.203-9.722 42.127-3.241 68.051 35.646 106.937 123.139 184.709 217.114 191.19 19.443 3.241 32.405 16.203 29.165 35.646 0 19.443-16.203 32.405-35.646 32.405zM1027.241 201.722c-45.367 132.861-152.304 223.595-272.203 236.557-16.203 3.241-32.405-12.962-35.646-29.165 0-16.203 12.962-32.405 29.165-35.646 93.975-9.722 181.468-84.253 217.114-191.19 9.722-29.165 9.722-55.089-3.241-68.051-6.481-9.722-22.684-16.203-42.127-16.203h-100.456c-19.443 0-32.405-12.962-32.405-32.405s12.962-32.405 32.405-32.405h100.456c51.848 0 81.013 22.684 93.975 42.127 25.924 29.165 29.165 77.772 12.962 126.38zM699.949 75.342c-3.241 3.241-3.241 6.481-6.481 9.722l-93.975 93.975c-12.962 12.962-32.405 12.962-45.367 0s-12.962-32.405 0-45.367l38.886-38.886h-213.873c-19.443 0-32.405-12.962-32.405-32.405s12.962-32.405 32.405-32.405h213.873l-38.886-38.886c-12.962-12.962-12.962-32.405 0-45.367 6.481-6.481 16.203-9.722 22.684-9.722s16.203 3.241 22.684 9.722l93.975 93.975c3.241 3.241 6.481 6.481 6.481 9.722 3.241 9.722 3.241 16.203 0 25.924z" />
<glyph unicode="&#xe969;" glyph-name="group" d="M1017.6 345.6c-12.8 38.4-38.4 70.4-67.2 92.8 32 28.8 54.4 70.4 54.4 121.6 0 83.2-57.6 147.2-131.2 147.2s-131.2-64-131.2-147.2 57.6-147.2 128-147.2c41.6-3.2 76.8-35.2 92.8-83.2 3.2-9.6 3.2-19.2 0-22.4 0-3.2-6.4-3.2-9.6-3.2h-76.8c-48 51.2-105.6 83.2-172.8 89.6-16 3.2-28.8-9.6-28.8-25.6s9.6-28.8 25.6-28.8c83.2-9.6 160-73.6 192-169.6 9.6-25.6 9.6-48-3.2-64-9.6-9.6-19.2-12.8-38.4-12.8h-700.8c-19.2 0-28.8 6.4-38.4 12.8-9.6 12.8-9.6 38.4-3.2 64 32 96 105.6 160 192 169.6 12.8 3.2 28.8 12.8 25.6 28.8 0 12.8-12.8 28.8-28.8 25.6-64-6.4-124.8-38.4-172.8-89.6h-57.6c-6.4 0-9.6 0-9.6 3.2-3.2 3.2-3.2 9.6 0 22.4 16 48 51.2 80 92.8 83.2 0 0 0 0 3.2 0 64 9.6 118.4 70.4 118.4 147.2 0 83.2-57.6 147.2-131.2 147.2s-131.2-64-131.2-147.2c0-51.2 25.6-99.2 60.8-121.6-28.8-22.4-51.2-51.2-64-89.6-9.6-28.8-6.4-51.2 6.4-70.4 9.6-16 28.8-25.6 54.4-25.6h19.2c-9.6-19.2-19.2-38.4-28.8-60.8-12.8-44.8-9.6-83.2 9.6-112 9.6-16 35.2-38.4 83.2-38.4h707.2c48 0 70.4 19.2 83.2 38.4 19.2 28.8 25.6 67.2 9.6 112-9.6 22.4-16 41.6-28.8 60.8h41.6c25.6 0 44.8 9.6 54.4 25.6s9.6 38.4 0 67.2zM800 556.8c0 51.2 32 92.8 76.8 92.8s76.8-41.6 76.8-92.8-32-92.8-76.8-92.8-76.8 41.6-76.8 92.8zM140.8 652.8c41.6 0 76.8-41.6 76.8-92.8s-32-92.8-76.8-92.8c-41.6-3.2-76.8 38.4-76.8 89.6 0 54.4 35.2 96 76.8 96zM508.8 348.8c121.6 0 217.6 112 217.6 252.8s-99.2 246.4-217.6 246.4-220.8-112-220.8-252.8 99.2-246.4 220.8-246.4zM508.8 793.6c89.6 0 163.2-86.4 163.2-195.2s-73.6-198.4-163.2-198.4-163.2 86.4-163.2 195.2 70.4 198.4 163.2 198.4z" />
<glyph unicode="&#xe96a;" glyph-name="headphone" d="M950.4 361.6v99.2c0 240-198.4 435.2-438.4 435.2s-438.4-195.2-438.4-438.4v-99.2c-41.6-6.4-73.6-44.8-73.6-89.6v-169.6c0-51.2 41.6-92.8 92.8-92.8h25.6c51.2 0 92.8 41.6 92.8 92.8v169.6c0 44.8-32 83.2-73.6 92.8v99.2c0 204.8 169.6 371.2 374.4 371.2s374.4-166.4 374.4-374.4v-99.2c-41.6-9.6-73.6-48-73.6-92.8v-169.6c0-51.2 41.6-92.8 92.8-92.8h25.6c51.2 0 92.8 41.6 92.8 92.8v169.6c0 48-32 86.4-73.6 96zM150.4 268.8v-169.6c0-16-12.8-28.8-28.8-28.8h-28.8c-16 0-28.8 12.8-28.8 28.8v169.6c0 16 12.8 28.8 28.8 28.8h25.6c16 0 32-12.8 32-28.8zM960 99.2c0-16-12.8-28.8-28.8-28.8h-25.6c-16 0-28.8 12.8-28.8 28.8v169.6c0 16 12.8 28.8 28.8 28.8h25.6c16 0 28.8-12.8 28.8-28.8v-169.6z" />
<glyph unicode="&#xe96b;" glyph-name="heart" d="M512 3.2c-19.2 0-38.4 6.4-54.4 22.4l-371.2 374.4c-57.6 57.6-89.6 131.2-86.4 211.2s35.2 153.6 96 208c51.2 51.2 121.6 76.8 195.2 76.8s140.8-25.6 195.2-76.8l25.6-22.4c25.6 28.8 48 41.6 64 51.2v3.2c48 28.8 102.4 44.8 156.8 44.8 76.8 0 150.4-28.8 204.8-86.4 54.4-54.4 86.4-128 86.4-204.8s-28.8-150.4-86.4-204.8l-371.2-374.4c-16-12.8-35.2-22.4-54.4-22.4zM291.2 832c-57.6 0-112-22.4-153.6-57.6-44.8-44.8-73.6-102.4-73.6-163.2 0-64 22.4-121.6 67.2-166.4l374.4-374.4c6.4-6.4 9.6-6.4 16 0l374.4 374.4c41.6 41.6 67.2 99.2 67.2 160s-22.4 118.4-67.2 160-102.4 67.2-163.2 67.2c-44.8 0-86.4-12.8-121.6-35.2l-3.2-3.2c-16-9.6-38.4-25.6-70.4-60.8-6.4-6.4-12.8-9.6-22.4-12.8-9.6 0-16 3.2-22.4 9.6l-48 44.8c-41.6 35.2-96 57.6-153.6 57.6z" />
<glyph unicode="&#xe96c;" glyph-name="history" d="M553.6 707.2c-19.2 0-32-12.8-32-32v-233.6c0-12.8 6.4-22.4 16-28.8l220.8-124.8c6.4-3.2 9.6-3.2 16-3.2 12.8 0 22.4 6.4 28.8 16 9.6 16 3.2 35.2-12.8 44.8l-204.8 115.2v214.4c0 16-12.8 32-32 32zM553.6 912c-233.6 0-428.8-172.8-464-396.8l-32 41.6c-9.6 12.8-32 16-44.8 6.4s-16-32-6.4-44.8l86.4-108.8c6.4-6.4 16-9.6 25.6-9.6 6.4 0 12.8 3.2 19.2 6.4l108.8 86.4c12.8 9.6 16 32 6.4 44.8s-32 16-44.8 6.4l-51.2-41.6c22.4 195.2 192 345.6 396.8 345.6 224 0 406.4-182.4 406.4-406.4s-182.4-406.4-406.4-406.4c-166.4 0-320 105.6-377.6 259.2-6.4 16-25.6 25.6-41.6 19.2s-25.6-25.6-19.2-41.6c70.4-179.2 246.4-300.8 438.4-300.8 259.2 0 470.4 211.2 470.4 470.4s-211.2 470.4-470.4 470.4z" />
<glyph unicode="&#xe96d;" glyph-name="home" d="M979.2 579.2l-396.8 310.4c-41.6 32-99.2 32-137.6 0l-403.2-313.6c-22.4-19.2-38.4-48-41.6-76.8s6.4-60.8 25.6-83.2c25.6-28.8 60.8-41.6 99.2-35.2v-304c0-48 38.4-86.4 86.4-86.4h604.8c48 0 86.4 38.4 86.4 86.4v304c6.4 0 9.6 0 16 0 38.4 0 76.8 22.4 96 54.4 22.4 48 9.6 108.8-35.2 144zM953.6 467.2c-12.8-22.4-48-28.8-67.2-12.8l-86.4 67.2c-12.8 9.6-35.2 9.6-44.8-6.4s-9.6-35.2 6.4-44.8l76.8-60.8v-332.8c0-12.8-9.6-22.4-22.4-22.4h-604.8c-12.8 0-22.4 9.6-22.4 22.4v336l76.8 60.8c12.8 9.6 16 32 6.4 44.8s-32 16-44.8 6.4l-86.4-67.2c-19.2-16-51.2-16-64 3.2-9.6 9.6-12.8 19.2-12.8 32s6.4 22.4 16 32l400 316.8c19.2 12.8 41.6 12.8 60.8 0l396.8-313.6c22.4-16 28.8-41.6 16-60.8zM624 470.4h-224c-19.2 0-32-12.8-32-32v-224c0-19.2 12.8-32 32-32h224c19.2 0 32 12.8 32 32v224c0 16-12.8 32-32 32zM592 246.4h-160v160h160v-160z" />
<glyph unicode="&#xe96e;" glyph-name="image" d="M284.8 451.2c76.8 0 140.8 64 140.8 140.8s-64 140.8-140.8 140.8-140.8-64-140.8-140.8 64-140.8 140.8-140.8zM284.8 665.6c41.6 0 76.8-35.2 76.8-76.8s-35.2-76.8-76.8-76.8-73.6 38.4-73.6 80 32 73.6 73.6 73.6zM937.6 864h-851.2c-48 0-86.4-38.4-86.4-86.4v-643.2c0-48 38.4-86.4 86.4-86.4h851.2c48 0 86.4 38.4 86.4 86.4v646.4c0 44.8-38.4 83.2-86.4 83.2zM86.4 800h851.2c12.8 0 22.4-9.6 22.4-22.4v-371.2l-195.2 188.8c-32 32-86.4 32-118.4 0l-268.8-262.4c-9.6-6.4-22.4-6.4-28.8 0l-35.2 32c-32 28.8-86.4 32-118.4 0l-131.2-121.6v534.4c0 12.8 9.6 22.4 22.4 22.4zM960 134.4c0-12.8-9.6-22.4-22.4-22.4h-851.2c-12.8 0-22.4 9.6-22.4 22.4v22.4l172.8 163.2c9.6 6.4 22.4 6.4 28.8 0l35.2-32c32-32 86.4-32 118.4 0l268.8 262.4c9.6 6.4 22.4 6.4 28.8 0l240-233.6v-182.4h3.2z" />
<glyph unicode="&#xe96f;" glyph-name="like-fill" d="M185.6 16h-121.6c-38.4 0-64 32-64 64v348.8c0 38.4 32 64 64 64h115.2c38.4 0 64-32 64-64v-345.6c6.4-38.4-25.6-67.2-57.6-67.2zM310.4 112c0-28.8 16-51.2 44.8-57.6 44.8-12.8 112-35.2 156.8-35.2h342.4c38.4 0 67.2 32 67.2 67.2v0c0 38.4-32 67.2-67.2 67.2h35.2c38.4 0 67.2 32 67.2 67.2v0c0 38.4-32 67.2-67.2 67.2h38.4c38.4 0 67.2 32 67.2 67.2v0c0 38.4-32 67.2-67.2 67.2h32c38.4 0 67.2 32 67.2 67.2v0c0 38.4-32 67.2-67.2 67.2h-316.8c38.4 60.8 22.4 150.4 19.2 224s-25.6 115.2-89.6 115.2c-64 0-60.8-57.6-60.8-57.6-12.8-227.2-121.6-326.4-172.8-364.8-16-9.6-28.8-32-28.8-51.2v-310.4z" />
<glyph unicode="&#xe970;" glyph-name="like-line" d="M1024 473.6c0 54.4-44.8 99.2-99.2 99.2h-268.8c16 51.2 9.6 112 6.4 163.2 0 9.6 0 19.2-3.2 28.8 0 44.8-6.4 147.2-115.2 147.2-35.2 0-57.6-12.8-67.2-25.6-28.8-25.6-28.8-60.8-28.8-64-12.8-220.8-118.4-313.6-163.2-342.4-16 19.2-41.6 28.8-67.2 28.8h-124.8c-51.2 0-92.8-41.6-92.8-92.8v-352c0-51.2 41.6-92.8 92.8-92.8h124.8c32 0 60.8 16 76.8 38.4 57.6-25.6 121.6-38.4 185.6-38.4h342.4c54.4 0 99.2 44.8 99.2 99.2 0 19.2-6.4 35.2-12.8 51.2 28.8 16 48 48 48 86.4 0 16-3.2 32-12.8 48 32 16 51.2 51.2 51.2 86.4 0 19.2-6.4 38.4-16 54.4 28.8 12.8 44.8 44.8 44.8 76.8zM249.6 64c0-16-12.8-28.8-28.8-28.8h-128c-16 0-28.8 12.8-28.8 28.8v352c0 16 12.8 28.8 28.8 28.8h124.8c16 0 28.8-12.8 28.8-28.8l3.2-352zM924.8 438.4h-28.8c-19.2 0-32-12.8-32-32s12.8-32 32-32 35.2-16 35.2-35.2-16-35.2-35.2-35.2h-38.4c-19.2 0-32-12.8-32-32s12.8-32 32-32 35.2-16 35.2-35.2-16-35.2-35.2-35.2h-35.2c-19.2 0-32-12.8-32-32s12.8-32 32-32 35.2-16 35.2-35.2-16-35.2-35.2-35.2h-342.4c-57.6 0-115.2 12.8-166.4 38.4v348.8c51.2 32 185.6 137.6 201.6 400-3.2 25.6 19.2 25.6 28.8 25.6 32 0 48-6.4 54.4-83.2 0-9.6 0-19.2 3.2-28.8 3.2-64 9.6-131.2-19.2-176-6.4-9.6-6.4-22.4 0-32s16-16 28.8-16h316.8c19.2 0 35.2-16 35.2-35.2-3.2-22.4-19.2-38.4-38.4-38.4z" />
<glyph unicode="&#xe971;" glyph-name="lock" horiz-adv-x="874" d="M435.2 419.2c-73.6 0-131.2-57.6-131.2-131.2 0-60.8 41.6-112 99.2-128v-73.6c0-19.2 12.8-32 32-32s32 12.8 32 32v73.6c57.6 16 99.2 67.2 99.2 128 0 73.6-57.6 131.2-131.2 131.2zM435.2 220.8c-38.4 0-67.2 32-67.2 67.2s28.8 67.2 67.2 67.2 67.2-28.8 67.2-67.2-28.8-67.2-67.2-67.2zM736 604.8h-73.6v128c0 124.8-102.4 227.2-227.2 227.2s-227.2-102.4-227.2-227.2v-131.2h-70.4c-76.8 3.2-137.6-57.6-137.6-134.4v-396.8c0-73.6 60.8-134.4 137.6-134.4h598.4c73.6 0 137.6 60.8 137.6 137.6v393.6c-3.2 76.8-64 137.6-137.6 137.6zM272 732.8c0 89.6 73.6 163.2 163.2 163.2s163.2-73.6 163.2-163.2v-131.2h-326.4v131.2zM806.4 73.6c0-38.4-32-73.6-73.6-73.6h-595.2c-41.6 0-73.6 32-73.6 73.6v393.6c0 38.4 32 73.6 73.6 73.6h598.4c38.4 0 73.6-32 73.6-73.6l-3.2-393.6z" />
<glyph unicode="&#xe972;" glyph-name="microphone" horiz-adv-x="630" d="M630.4 476.8v80c0 19.2-12.8 32-32 32s-32-12.8-32-32v-80c0-137.6-112-252.8-252.8-252.8-137.6 0-249.6 112-249.6 252.8v80c0 19.2-12.8 32-32 32s-32-12.8-32-32v-80c0-163.2 124.8-297.6 284.8-313.6v-163.2h-166.4c-19.2 0-32-12.8-32-32s12.8-32 32-32h393.6c19.2 0 32 12.8 32 32s-12.8 32-32 32h-166.4v163.2c160 16 284.8 150.4 284.8 313.6zM204.8 361.6c32-28.8 70.4-41.6 112-41.6 92.8 0 166.4 73.6 166.4 166.4v307.2c0 92.8-73.6 166.4-166.4 166.4s-166.4-73.6-166.4-166.4v-307.2c0-80 54.4-124.8 54.4-124.8zM214.4 793.6c0 57.6 44.8 102.4 102.4 102.4s102.4-44.8 102.4-102.4v-307.2c0-57.6-44.8-102.4-102.4-102.4-25.6 0-51.2 9.6-70.4 28.8 0 0-32 25.6-32 76.8v304z" />
<glyph unicode="&#xe973;" glyph-name="music-note" horiz-adv-x="1008" d="M1008 928c0 9.6-3.2 19.2-12.8 25.6-6.4 6.4-16 6.4-25.6 6.4l-649.6-121.6c-12.8-3.2-22.4-16-22.4-28.8v-556.8c-32 28.8-73.6 44.8-115.2 44.8-99.2 0-179.2-83.2-179.2-179.2s80-182.4 176-182.4 179.2 83.2 179.2 179.2v371.2l585.6 121.6v-256c-32 28.8-73.6 44.8-115.2 44.8-99.2 0-179.2-83.2-179.2-179.2s83.2-179.2 179.2-179.2 179.2 83.2 179.2 179.2c0 3.2 0 9.6 0 12.8v697.6zM179.2-3.2c-64 0-115.2 54.4-115.2 115.2s54.4 115.2 115.2 115.2 115.2-54.4 115.2-115.2-51.2-115.2-115.2-115.2zM358.4 553.6v227.2l585.6 108.8v-217.6l-585.6-118.4zM828.8 99.2c-64 0-115.2 54.4-115.2 115.2s54.4 115.2 115.2 115.2 115.2-54.4 115.2-115.2-51.2-115.2-115.2-115.2z" />
<glyph unicode="&#xe974;" glyph-name="wallet" horiz-adv-x="1053" d="M963.2 720h-83.2l-230.4 230.4c-12.8 12.8-32 12.8-44.8 0l-80-80-76.8 80c-12.8 12.8-32 12.8-44.8 0l-230.4-230.4h-83.2c-51.2 0-89.6-38.4-89.6-89.6v-604.8c0-51.2 38.4-89.6 89.6-89.6h876.8c48 0 89.6 38.4 89.6 89.6v608c-3.2 48-41.6 86.4-92.8 86.4zM630.4 880l160-160h-323.2l163.2 160zM425.6 880l54.4-54.4-105.6-105.6h-112l163.2 160zM963.2 3.2h-873.6c-12.8 0-22.4 9.6-22.4 22.4v604.8c0 12.8 9.6 22.4 22.4 22.4h876.8c12.8 0 22.4-9.6 22.4-22.4v-140.8h-278.4c-48 0-89.6-38.4-89.6-89.6v-147.2c0-48 38.4-89.6 89.6-89.6h278.4v-140.8c0-9.6-9.6-19.2-25.6-19.2zM988.8 233.6h-278.4c-12.8 0-22.4 9.6-22.4 22.4v147.2c0 12.8 9.6 22.4 22.4 22.4h278.4v-192zM790.4 243.2c44.8 0 86.4 38.4 86.4 86.4 0 44.8-38.4 86.4-86.4 86.4-44.8 0-86.4-38.4-86.4-86.4s38.4-86.4 86.4-86.4zM790.4 348.8c9.6 0 19.2-9.6 19.2-19.2s-9.6-19.2-19.2-19.2c-9.6 0-19.2 9.6-19.2 19.2s6.4 19.2 19.2 19.2z" />
</font>
</defs>
</svg>
